<svg width="318" height="202" viewBox="0 0 318 202" fill="none" xmlns="http://www.w3.org/2000/svg">
<rect x="247.5" y="18.5" width="51" height="51" rx="6.5" fill="#FFC5D0" stroke="black"/>
<rect width="318" height="202" rx="27" fill="white"/>
<rect x="247.5" y="18.5" width="51" height="51" rx="6.5" fill="#FFC5D0" stroke="black"/>
<path d="M97.697 83.672C98.753 83.672 99.617 83.832 100.289 84.152C100.977 84.456 101.585 84.816 102.113 85.232C102.433 85.472 102.673 85.504 102.833 85.328C103.009 85.136 103.129 84.696 103.193 84.008H103.745C103.713 84.6 103.689 85.32 103.673 86.168C103.657 87.016 103.649 88.136 103.649 89.528H103.097C102.985 88.84 102.881 88.296 102.785 87.896C102.689 87.48 102.569 87.128 102.425 86.84C102.297 86.552 102.121 86.264 101.897 85.976C101.401 85.32 100.777 84.848 100.025 84.56C99.273 84.256 98.481 84.104 97.649 84.104C96.865 84.104 96.153 84.304 95.513 84.704C94.889 85.088 94.345 85.648 93.881 86.384C93.433 87.12 93.081 88.008 92.825 89.048C92.585 90.088 92.465 91.256 92.465 92.552C92.465 93.896 92.601 95.088 92.873 96.128C93.145 97.152 93.521 98.016 94.001 98.72C94.497 99.424 95.073 99.96 95.729 100.328C96.401 100.68 97.121 100.856 97.889 100.856C98.609 100.856 99.361 100.712 100.145 100.424C100.929 100.136 101.545 99.672 101.993 99.032C102.345 98.568 102.585 98.064 102.713 97.52C102.857 96.976 102.985 96.216 103.097 95.24H103.649C103.649 96.696 103.657 97.872 103.673 98.768C103.689 99.648 103.713 100.392 103.745 101H103.193C103.129 100.312 103.017 99.88 102.857 99.704C102.713 99.528 102.465 99.552 102.113 99.776C101.521 100.192 100.889 100.56 100.217 100.88C99.561 101.184 98.713 101.336 97.673 101.336C96.153 101.336 94.817 100.992 93.665 100.304C92.529 99.616 91.641 98.624 91.001 97.328C90.377 96.032 90.065 94.472 90.065 92.648C90.065 90.856 90.393 89.288 91.049 87.944C91.705 86.6 92.601 85.552 93.737 84.8C94.889 84.048 96.209 83.672 97.697 83.672ZM109.42 101.168C108.764 101.168 108.196 101.048 107.716 100.808C107.236 100.552 106.868 100.2 106.612 99.752C106.372 99.304 106.252 98.784 106.252 98.192C106.252 97.488 106.412 96.912 106.732 96.464C107.068 96.016 107.492 95.656 108.004 95.384C108.516 95.112 109.052 94.888 109.612 94.712C110.188 94.52 110.732 94.344 111.244 94.184C111.756 94.008 112.172 93.808 112.492 93.584C112.828 93.36 112.996 93.064 112.996 92.696V91.208C112.996 90.536 112.892 90.024 112.684 89.672C112.492 89.32 112.228 89.088 111.892 88.976C111.556 88.848 111.18 88.784 110.764 88.784C110.364 88.784 109.932 88.84 109.468 88.952C109.02 89.064 108.66 89.296 108.388 89.648C108.692 89.712 108.956 89.872 109.18 90.128C109.404 90.384 109.516 90.712 109.516 91.112C109.516 91.512 109.388 91.832 109.132 92.072C108.876 92.296 108.548 92.408 108.148 92.408C107.684 92.408 107.34 92.264 107.116 91.976C106.908 91.672 106.804 91.336 106.804 90.968C106.804 90.552 106.908 90.216 107.116 89.96C107.324 89.704 107.588 89.464 107.908 89.24C108.276 88.984 108.748 88.768 109.324 88.592C109.916 88.4 110.58 88.304 111.316 88.304C111.972 88.304 112.532 88.384 112.996 88.544C113.46 88.688 113.844 88.904 114.148 89.192C114.564 89.576 114.836 90.048 114.964 90.608C115.092 91.152 115.156 91.808 115.156 92.576V99.248C115.156 99.648 115.212 99.936 115.324 100.112C115.452 100.288 115.644 100.376 115.9 100.376C116.076 100.376 116.244 100.336 116.404 100.256C116.564 100.176 116.756 100.048 116.98 99.872L117.244 100.28C116.908 100.536 116.588 100.752 116.284 100.928C115.98 101.088 115.572 101.168 115.06 101.168C114.596 101.168 114.212 101.088 113.908 100.928C113.604 100.768 113.372 100.536 113.212 100.232C113.068 99.912 112.996 99.512 112.996 99.032C112.564 99.752 112.044 100.288 111.436 100.64C110.844 100.992 110.172 101.168 109.42 101.168ZM110.284 100.208C110.812 100.208 111.3 100.056 111.748 99.752C112.212 99.448 112.628 98.992 112.996 98.384V93.68C112.804 93.952 112.524 94.184 112.156 94.376C111.788 94.552 111.388 94.736 110.956 94.928C110.524 95.104 110.108 95.32 109.708 95.576C109.324 95.816 109.004 96.136 108.748 96.536C108.492 96.936 108.364 97.456 108.364 98.096C108.364 98.736 108.532 99.248 108.868 99.632C109.22 100.016 109.692 100.208 110.284 100.208ZM125.886 88.304C126.446 88.304 126.934 88.384 127.35 88.544C127.766 88.704 128.11 88.928 128.382 89.216C128.686 89.536 128.894 89.952 129.006 90.464C129.118 90.976 129.174 91.608 129.174 92.36V98.768C129.174 99.44 129.31 99.896 129.582 100.136C129.87 100.376 130.342 100.496 130.998 100.496V101C130.726 100.984 130.31 100.968 129.75 100.952C129.19 100.92 128.646 100.904 128.118 100.904C127.59 100.904 127.07 100.92 126.558 100.952C126.062 100.968 125.686 100.984 125.43 101V100.496C126.006 100.496 126.414 100.376 126.654 100.136C126.894 99.896 127.014 99.44 127.014 98.768V91.832C127.014 91.336 126.982 90.88 126.918 90.464C126.854 90.048 126.694 89.712 126.438 89.456C126.182 89.2 125.766 89.072 125.19 89.072C124.566 89.072 124.006 89.264 123.51 89.648C123.03 90.032 122.646 90.56 122.358 91.232C122.086 91.888 121.95 92.624 121.95 93.44V98.768C121.95 99.44 122.07 99.896 122.31 100.136C122.55 100.376 122.958 100.496 123.534 100.496V101C123.278 100.984 122.894 100.968 122.382 100.952C121.886 100.92 121.374 100.904 120.846 100.904C120.318 100.904 119.774 100.92 119.214 100.952C118.654 100.968 118.238 100.984 117.966 101V100.496C118.622 100.496 119.086 100.376 119.358 100.136C119.646 99.896 119.79 99.44 119.79 98.768V91.256C119.79 90.536 119.662 90.008 119.406 89.672C119.15 89.32 118.67 89.144 117.966 89.144V88.64C118.478 88.688 118.974 88.712 119.454 88.712C119.918 88.712 120.358 88.688 120.774 88.64C121.206 88.576 121.598 88.488 121.95 88.376V91.208C122.366 90.168 122.934 89.424 123.654 88.976C124.374 88.528 125.118 88.304 125.886 88.304ZM133.11 88.304C133.67 88.304 134.158 88.384 134.574 88.544C134.99 88.704 135.334 88.928 135.606 89.216C135.91 89.536 136.118 89.952 136.23 90.464C136.342 90.976 136.398 91.608 136.398 92.36V98.768C136.398 99.44 136.534 99.896 136.806 100.136C137.094 100.376 137.566 100.496 138.222 100.496V101C137.95 100.984 137.534 100.968 136.974 100.952C136.414 100.92 135.87 100.904 135.342 100.904C134.814 100.904 134.294 100.92 133.782 100.952C133.286 100.968 132.91 100.984 132.654 101V100.496C133.23 100.496 133.638 100.376 133.878 100.136C134.118 99.896 134.238 99.44 134.238 98.768V91.832C134.238 91.336 134.206 90.88 134.142 90.464C134.078 90.048 133.918 89.712 133.662 89.456C133.406 89.2 132.99 89.072 132.414 89.072C131.79 89.072 131.23 89.264 130.734 89.648C130.254 90.032 129.87 90.552 129.582 91.208C129.31 91.864 129.174 92.6 129.174 93.416L129.102 91.184C129.534 90.08 130.118 89.328 130.854 88.928C131.59 88.512 132.342 88.304 133.11 88.304ZM143.086 88.376V103.112C143.086 103.8 143.286 104.256 143.686 104.48C144.102 104.72 144.67 104.84 145.39 104.84V105.344C145.038 105.328 144.55 105.304 143.926 105.272C143.302 105.256 142.638 105.248 141.934 105.248C141.438 105.248 140.942 105.256 140.446 105.272C139.966 105.304 139.598 105.328 139.342 105.344V104.84C139.918 104.84 140.326 104.736 140.566 104.528C140.806 104.32 140.926 103.928 140.926 103.352V91.256C140.926 90.536 140.798 90.008 140.542 89.672C140.286 89.32 139.806 89.144 139.102 89.144V88.64C139.614 88.688 140.11 88.712 140.59 88.712C141.054 88.712 141.494 88.688 141.91 88.64C142.342 88.576 142.734 88.488 143.086 88.376ZM146.926 88.304C147.774 88.304 148.534 88.536 149.206 89C149.878 89.448 150.406 90.112 150.79 90.992C151.19 91.872 151.39 92.96 151.39 94.256C151.39 95.12 151.286 95.976 151.078 96.824C150.87 97.656 150.542 98.416 150.094 99.104C149.662 99.776 149.094 100.32 148.39 100.736C147.702 101.136 146.87 101.336 145.894 101.336C145.142 101.336 144.486 101.16 143.926 100.808C143.382 100.456 143.014 100.032 142.822 99.536L143.062 99.2C143.286 99.648 143.606 100.024 144.022 100.328C144.454 100.632 144.99 100.784 145.63 100.784C146.526 100.784 147.222 100.504 147.718 99.944C148.214 99.384 148.558 98.64 148.75 97.712C148.958 96.768 149.062 95.728 149.062 94.592C149.062 93.312 148.958 92.264 148.75 91.448C148.542 90.632 148.23 90.024 147.814 89.624C147.398 89.224 146.886 89.024 146.278 89.024C145.494 89.024 144.782 89.352 144.142 90.008C143.502 90.648 143.094 91.624 142.918 92.936L142.63 92.6C142.806 91.24 143.286 90.184 144.07 89.432C144.87 88.68 145.822 88.304 146.926 88.304ZM164.112 88.376V98.408C164.112 99.128 164.24 99.664 164.496 100.016C164.768 100.352 165.248 100.52 165.936 100.52V101.024C165.44 100.976 164.944 100.952 164.448 100.952C163.984 100.952 163.536 100.976 163.104 101.024C162.688 101.072 162.304 101.16 161.952 101.288V98.456C161.552 99.496 160.984 100.24 160.248 100.688C159.528 101.12 158.784 101.336 158.016 101.336C157.456 101.336 156.968 101.256 156.552 101.096C156.136 100.936 155.792 100.712 155.52 100.424C155.216 100.104 155.008 99.688 154.896 99.176C154.784 98.664 154.728 98.032 154.728 97.28V91.256C154.728 90.536 154.6 90.008 154.344 89.672C154.088 89.32 153.608 89.144 152.904 89.144V88.64C153.416 88.688 153.912 88.712 154.392 88.712C154.856 88.712 155.296 88.688 155.712 88.64C156.144 88.576 156.536 88.488 156.888 88.376V97.808C156.888 98.304 156.92 98.76 156.984 99.176C157.048 99.592 157.208 99.928 157.464 100.184C157.72 100.44 158.136 100.568 158.712 100.568C159.336 100.568 159.888 100.376 160.368 99.992C160.864 99.608 161.248 99.088 161.52 98.432C161.808 97.776 161.952 97.04 161.952 96.224V91.256C161.952 90.536 161.824 90.008 161.568 89.672C161.312 89.32 160.832 89.144 160.128 89.144V88.64C160.64 88.688 161.136 88.712 161.616 88.712C162.08 88.712 162.52 88.688 162.936 88.64C163.368 88.576 163.76 88.488 164.112 88.376ZM171.457 88.304C172.097 88.304 172.641 88.408 173.089 88.616C173.537 88.824 173.865 89.016 174.073 89.192C174.601 89.624 174.921 89.336 175.033 88.328H175.585C175.553 88.776 175.529 89.312 175.513 89.936C175.497 90.544 175.489 91.368 175.489 92.408H174.937C174.841 91.816 174.673 91.24 174.433 90.68C174.209 90.12 173.873 89.664 173.425 89.312C172.977 88.944 172.393 88.76 171.673 88.76C171.113 88.76 170.641 88.92 170.257 89.24C169.889 89.544 169.705 90 169.705 90.608C169.705 91.088 169.849 91.504 170.137 91.856C170.425 92.192 170.801 92.512 171.265 92.816C171.729 93.104 172.233 93.424 172.777 93.776C173.385 94.16 173.937 94.552 174.433 94.952C174.929 95.352 175.321 95.792 175.609 96.272C175.913 96.752 176.065 97.32 176.065 97.976C176.065 98.712 175.873 99.328 175.489 99.824C175.105 100.32 174.601 100.696 173.977 100.952C173.369 101.208 172.697 101.336 171.961 101.336C171.609 101.336 171.273 101.304 170.953 101.24C170.649 101.192 170.353 101.112 170.065 101C169.905 100.92 169.737 100.824 169.561 100.712C169.401 100.6 169.241 100.48 169.081 100.352C168.921 100.224 168.777 100.232 168.649 100.376C168.521 100.504 168.425 100.768 168.361 101.168H167.809C167.841 100.656 167.865 100.032 167.881 99.296C167.897 98.56 167.905 97.584 167.905 96.368H168.457C168.569 97.264 168.729 98.048 168.937 98.72C169.145 99.392 169.473 99.92 169.921 100.304C170.369 100.672 170.993 100.856 171.793 100.856C172.113 100.856 172.433 100.784 172.753 100.64C173.089 100.496 173.369 100.256 173.593 99.92C173.817 99.584 173.929 99.136 173.929 98.576C173.929 97.872 173.673 97.296 173.161 96.848C172.649 96.4 172.001 95.928 171.217 95.432C170.641 95.064 170.097 94.696 169.585 94.328C169.089 93.96 168.681 93.544 168.361 93.08C168.057 92.616 167.905 92.056 167.905 91.4C167.905 90.68 168.065 90.096 168.385 89.648C168.721 89.184 169.161 88.848 169.705 88.64C170.249 88.416 170.833 88.304 171.457 88.304ZM196.798 84.008C196.734 84.616 196.686 85.208 196.654 85.784C196.638 86.344 196.63 86.776 196.63 87.08C196.63 87.464 196.638 87.824 196.654 88.16C196.67 88.496 196.686 88.792 196.702 89.048H196.15C196.038 87.928 195.886 87.048 195.694 86.408C195.502 85.752 195.166 85.28 194.686 84.992C194.206 84.704 193.462 84.56 192.454 84.56H191.158V98.216C191.158 98.856 191.214 99.336 191.326 99.656C191.454 99.976 191.694 100.192 192.046 100.304C192.398 100.416 192.91 100.488 193.582 100.52V101C193.166 100.968 192.638 100.952 191.998 100.952C191.358 100.936 190.71 100.928 190.054 100.928C189.334 100.928 188.654 100.936 188.014 100.952C187.39 100.952 186.886 100.968 186.502 101V100.52C187.174 100.488 187.686 100.416 188.038 100.304C188.39 100.192 188.622 99.976 188.734 99.656C188.862 99.336 188.926 98.856 188.926 98.216V84.56H187.63C186.638 84.56 185.894 84.704 185.398 84.992C184.918 85.28 184.582 85.752 184.39 86.408C184.198 87.048 184.046 87.928 183.934 89.048H183.382C183.414 88.792 183.43 88.496 183.43 88.16C183.446 87.824 183.454 87.464 183.454 87.08C183.454 86.776 183.438 86.344 183.406 85.784C183.39 85.208 183.35 84.616 183.286 84.008C183.958 84.024 184.686 84.04 185.47 84.056C186.27 84.072 187.07 84.08 187.87 84.08C188.67 84.08 189.398 84.08 190.054 84.08C190.71 84.08 191.43 84.08 192.214 84.08C193.014 84.08 193.814 84.072 194.614 84.056C195.414 84.04 196.142 84.024 196.798 84.008ZM200.928 82.64C201.344 82.64 201.704 82.792 202.008 83.096C202.312 83.4 202.464 83.76 202.464 84.176C202.464 84.592 202.312 84.952 202.008 85.256C201.704 85.56 201.344 85.712 200.928 85.712C200.512 85.712 200.152 85.56 199.848 85.256C199.544 84.952 199.392 84.592 199.392 84.176C199.392 83.76 199.544 83.4 199.848 83.096C200.152 82.792 200.512 82.64 200.928 82.64ZM202.176 88.376V98.768C202.176 99.44 202.312 99.896 202.584 100.136C202.872 100.376 203.344 100.496 204 100.496V101C203.728 100.984 203.312 100.968 202.752 100.952C202.208 100.92 201.656 100.904 201.096 100.904C200.552 100.904 200 100.92 199.44 100.952C198.88 100.968 198.464 100.984 198.192 101V100.496C198.848 100.496 199.312 100.376 199.584 100.136C199.872 99.896 200.016 99.44 200.016 98.768V91.256C200.016 90.536 199.888 90.008 199.632 89.672C199.376 89.32 198.896 89.144 198.192 89.144V88.64C198.704 88.688 199.2 88.712 199.68 88.712C200.144 88.712 200.584 88.688 201 88.64C201.432 88.576 201.824 88.488 202.176 88.376ZM209.039 88.376V103.112C209.039 103.8 209.239 104.256 209.639 104.48C210.055 104.72 210.623 104.84 211.343 104.84V105.344C210.991 105.328 210.503 105.304 209.879 105.272C209.255 105.256 208.591 105.248 207.887 105.248C207.391 105.248 206.895 105.256 206.399 105.272C205.919 105.304 205.551 105.328 205.295 105.344V104.84C205.871 104.84 206.279 104.736 206.519 104.528C206.759 104.32 206.879 103.928 206.879 103.352V91.256C206.879 90.536 206.751 90.008 206.495 89.672C206.239 89.32 205.759 89.144 205.055 89.144V88.64C205.567 88.688 206.063 88.712 206.543 88.712C207.007 88.712 207.447 88.688 207.863 88.64C208.295 88.576 208.687 88.488 209.039 88.376ZM212.879 88.304C213.727 88.304 214.487 88.536 215.159 89C215.831 89.448 216.359 90.112 216.743 90.992C217.143 91.872 217.343 92.96 217.343 94.256C217.343 95.12 217.239 95.976 217.031 96.824C216.823 97.656 216.495 98.416 216.047 99.104C215.615 99.776 215.047 100.32 214.343 100.736C213.655 101.136 212.823 101.336 211.847 101.336C211.095 101.336 210.439 101.16 209.879 100.808C209.335 100.456 208.967 100.032 208.775 99.536L209.015 99.2C209.239 99.648 209.559 100.024 209.975 100.328C210.407 100.632 210.943 100.784 211.583 100.784C212.479 100.784 213.175 100.504 213.671 99.944C214.167 99.384 214.511 98.64 214.703 97.712C214.911 96.768 215.015 95.728 215.015 94.592C215.015 93.312 214.911 92.264 214.703 91.448C214.495 90.632 214.183 90.024 213.767 89.624C213.351 89.224 212.839 89.024 212.231 89.024C211.447 89.024 210.735 89.352 210.095 90.008C209.455 90.648 209.047 91.624 208.871 92.936L208.583 92.6C208.759 91.24 209.239 90.184 210.023 89.432C210.823 88.68 211.775 88.304 212.879 88.304ZM223.465 88.304C224.105 88.304 224.649 88.408 225.097 88.616C225.545 88.824 225.873 89.016 226.081 89.192C226.609 89.624 226.929 89.336 227.041 88.328H227.593C227.561 88.776 227.537 89.312 227.521 89.936C227.505 90.544 227.497 91.368 227.497 92.408H226.945C226.849 91.816 226.681 91.24 226.441 90.68C226.217 90.12 225.881 89.664 225.433 89.312C224.985 88.944 224.401 88.76 223.681 88.76C223.121 88.76 222.649 88.92 222.265 89.24C221.897 89.544 221.713 90 221.713 90.608C221.713 91.088 221.857 91.504 222.145 91.856C222.433 92.192 222.809 92.512 223.273 92.816C223.737 93.104 224.241 93.424 224.785 93.776C225.393 94.16 225.945 94.552 226.441 94.952C226.937 95.352 227.329 95.792 227.617 96.272C227.921 96.752 228.073 97.32 228.073 97.976C228.073 98.712 227.881 99.328 227.497 99.824C227.113 100.32 226.609 100.696 225.985 100.952C225.377 101.208 224.705 101.336 223.969 101.336C223.617 101.336 223.281 101.304 222.961 101.24C222.657 101.192 222.361 101.112 222.073 101C221.913 100.92 221.745 100.824 221.569 100.712C221.409 100.6 221.249 100.48 221.089 100.352C220.929 100.224 220.785 100.232 220.657 100.376C220.529 100.504 220.433 100.768 220.369 101.168H219.817C219.849 100.656 219.873 100.032 219.889 99.296C219.905 98.56 219.913 97.584 219.913 96.368H220.465C220.577 97.264 220.737 98.048 220.945 98.72C221.153 99.392 221.481 99.92 221.929 100.304C222.377 100.672 223.001 100.856 223.801 100.856C224.121 100.856 224.441 100.784 224.761 100.64C225.097 100.496 225.377 100.256 225.601 99.92C225.825 99.584 225.937 99.136 225.937 98.576C225.937 97.872 225.681 97.296 225.169 96.848C224.657 96.4 224.009 95.928 223.225 95.432C222.649 95.064 222.105 94.696 221.593 94.328C221.097 93.96 220.689 93.544 220.369 93.08C220.065 92.616 219.913 92.056 219.913 91.4C219.913 90.68 220.073 90.096 220.393 89.648C220.729 89.184 221.169 88.848 221.713 88.64C222.257 88.416 222.841 88.304 223.465 88.304Z" fill="black"/>
<path d="M273.422 27.3305C273.317 27.2257 273.193 27.1426 273.056 27.0859C272.92 27.0292 272.773 27 272.625 27C272.477 27 272.331 27.0292 272.194 27.0859C272.057 27.1426 271.933 27.2257 271.829 27.3305L258.329 40.8305C258.224 40.9352 258.141 41.0594 258.085 41.1961C258.029 41.3327 258 41.4792 258 41.627V57.377C258 57.6754 258.119 57.9615 258.33 58.1725C258.54 58.3835 258.827 58.502 259.125 58.502H269.25C269.548 58.502 269.835 58.3835 270.045 58.1725C270.256 57.9615 270.375 57.6754 270.375 57.377V48.377H274.875V57.377C274.875 57.6754 274.994 57.9615 275.205 58.1725C275.415 58.3835 275.702 58.502 276 58.502H286.125C286.423 58.502 286.71 58.3835 286.92 58.1725C287.131 57.9615 287.25 57.6754 287.25 57.377V41.627C287.25 41.4792 287.221 41.3327 287.165 41.1961C287.109 41.0594 287.026 40.9352 286.922 40.8305L283.875 37.7863V30.377C283.875 30.0786 283.756 29.7925 283.545 29.5815C283.335 29.3705 283.048 29.252 282.75 29.252H280.5C280.202 29.252 279.915 29.3705 279.705 29.5815C279.494 29.7925 279.375 30.0786 279.375 30.377V33.2863L273.422 27.3305ZM260.25 56.252V42.0928L272.625 29.7178L285 42.0928V56.252H277.125V47.252C277.125 46.9536 277.006 46.6675 276.795 46.4565C276.585 46.2455 276.298 46.127 276 46.127H269.25C268.952 46.127 268.665 46.2455 268.455 46.4565C268.244 46.6675 268.125 46.9536 268.125 47.252V56.252H260.25Z" fill="#D0398B"/>
</svg>
