<svg width="318" height="202" viewBox="0 0 318 202" fill="none" xmlns="http://www.w3.org/2000/svg">
<rect x="247.5" y="18.5" width="51" height="51" rx="6.5" fill="#FFC5D0" stroke="black"/>
<rect width="318" height="202" rx="27" fill="white"/>
<rect x="247.5" y="18.5" width="51" height="51" rx="6.5" fill="#FFC5D0" stroke="black"/>
<path d="M101.119 83.672C102.175 83.672 103.039 83.832 103.711 84.152C104.399 84.456 105.007 84.816 105.535 85.232C105.855 85.472 106.095 85.504 106.255 85.328C106.431 85.136 106.551 84.696 106.615 84.008H107.167C107.135 84.6 107.111 85.32 107.095 86.168C107.079 87.016 107.071 88.136 107.071 89.528H106.519C106.407 88.84 106.303 88.296 106.207 87.896C106.111 87.48 105.991 87.128 105.847 86.84C105.719 86.552 105.543 86.264 105.319 85.976C104.823 85.32 104.199 84.848 103.447 84.56C102.695 84.256 101.903 84.104 101.071 84.104C100.287 84.104 99.5748 84.304 98.9348 84.704C98.3108 85.088 97.7668 85.648 97.3028 86.384C96.8548 87.12 96.5028 88.008 96.2468 89.048C96.0068 90.088 95.8868 91.256 95.8868 92.552C95.8868 93.896 96.0228 95.088 96.2948 96.128C96.5668 97.152 96.9428 98.016 97.4228 98.72C97.9188 99.424 98.4948 99.96 99.1508 100.328C99.8228 100.68 100.543 100.856 101.311 100.856C102.031 100.856 102.783 100.712 103.567 100.424C104.351 100.136 104.967 99.672 105.415 99.032C105.767 98.568 106.007 98.064 106.135 97.52C106.279 96.976 106.407 96.216 106.519 95.24H107.071C107.071 96.696 107.079 97.872 107.095 98.768C107.111 99.648 107.135 100.392 107.167 101H106.615C106.551 100.312 106.439 99.88 106.279 99.704C106.135 99.528 105.887 99.552 105.535 99.776C104.943 100.192 104.311 100.56 103.639 100.88C102.983 101.184 102.135 101.336 101.095 101.336C99.5748 101.336 98.2388 100.992 97.0868 100.304C95.9508 99.616 95.0628 98.624 94.4228 97.328C93.7988 96.032 93.4868 94.472 93.4868 92.648C93.4868 90.856 93.8148 89.288 94.4708 87.944C95.1268 86.6 96.0228 85.552 97.1588 84.8C98.3108 84.048 99.6308 83.672 101.119 83.672ZM115.314 88.304C116.338 88.304 117.258 88.528 118.074 88.976C118.89 89.424 119.538 90.128 120.018 91.088C120.514 92.048 120.762 93.296 120.762 94.832C120.762 96.368 120.514 97.616 120.018 98.576C119.538 99.52 118.89 100.216 118.074 100.664C117.258 101.112 116.338 101.336 115.314 101.336C114.306 101.336 113.386 101.112 112.554 100.664C111.738 100.216 111.082 99.52 110.586 98.576C110.106 97.616 109.866 96.368 109.866 94.832C109.866 93.296 110.106 92.048 110.586 91.088C111.082 90.128 111.738 89.424 112.554 88.976C113.386 88.528 114.306 88.304 115.314 88.304ZM115.314 88.784C114.402 88.784 113.65 89.256 113.058 90.2C112.482 91.144 112.194 92.688 112.194 94.832C112.194 96.976 112.482 98.52 113.058 99.464C113.65 100.392 114.402 100.856 115.314 100.856C116.226 100.856 116.97 100.392 117.546 99.464C118.138 98.52 118.434 96.976 118.434 94.832C118.434 92.688 118.138 91.144 117.546 90.2C116.97 89.256 116.226 88.784 115.314 88.784ZM128.463 88.304C129.487 88.304 130.407 88.528 131.223 88.976C132.039 89.424 132.687 90.128 133.167 91.088C133.663 92.048 133.911 93.296 133.911 94.832C133.911 96.368 133.663 97.616 133.167 98.576C132.687 99.52 132.039 100.216 131.223 100.664C130.407 101.112 129.487 101.336 128.463 101.336C127.455 101.336 126.535 101.112 125.703 100.664C124.887 100.216 124.231 99.52 123.735 98.576C123.255 97.616 123.015 96.368 123.015 94.832C123.015 93.296 123.255 92.048 123.735 91.088C124.231 90.128 124.887 89.424 125.703 88.976C126.535 88.528 127.455 88.304 128.463 88.304ZM128.463 88.784C127.551 88.784 126.799 89.256 126.207 90.2C125.631 91.144 125.343 92.688 125.343 94.832C125.343 96.976 125.631 98.52 126.207 99.464C126.799 100.392 127.551 100.856 128.463 100.856C129.375 100.856 130.119 100.392 130.695 99.464C131.287 98.52 131.583 96.976 131.583 94.832C131.583 92.688 131.287 91.144 130.695 90.2C130.119 89.256 129.375 88.784 128.463 88.784ZM139.547 88.376V103.112C139.547 103.8 139.747 104.256 140.147 104.48C140.563 104.72 141.131 104.84 141.851 104.84V105.344C141.499 105.328 141.011 105.304 140.387 105.272C139.763 105.256 139.099 105.248 138.395 105.248C137.899 105.248 137.403 105.256 136.907 105.272C136.427 105.304 136.059 105.328 135.803 105.344V104.84C136.379 104.84 136.787 104.736 137.027 104.528C137.267 104.32 137.387 103.928 137.387 103.352V91.256C137.387 90.536 137.259 90.008 137.003 89.672C136.747 89.32 136.267 89.144 135.563 89.144V88.64C136.075 88.688 136.571 88.712 137.051 88.712C137.515 88.712 137.955 88.688 138.371 88.64C138.803 88.576 139.195 88.488 139.547 88.376ZM143.387 88.304C144.235 88.304 144.995 88.536 145.667 89C146.339 89.448 146.867 90.112 147.251 90.992C147.651 91.872 147.851 92.96 147.851 94.256C147.851 95.12 147.747 95.976 147.539 96.824C147.331 97.656 147.003 98.416 146.555 99.104C146.123 99.776 145.555 100.32 144.851 100.736C144.163 101.136 143.331 101.336 142.355 101.336C141.603 101.336 140.947 101.16 140.387 100.808C139.843 100.456 139.475 100.032 139.283 99.536L139.523 99.2C139.747 99.648 140.067 100.024 140.483 100.328C140.915 100.632 141.451 100.784 142.091 100.784C142.987 100.784 143.683 100.504 144.179 99.944C144.675 99.384 145.019 98.64 145.211 97.712C145.419 96.768 145.523 95.728 145.523 94.592C145.523 93.312 145.419 92.264 145.211 91.448C145.003 90.632 144.691 90.024 144.275 89.624C143.859 89.224 143.347 89.024 142.739 89.024C141.955 89.024 141.243 89.352 140.603 90.008C139.963 90.648 139.555 91.624 139.379 92.936L139.091 92.6C139.267 91.24 139.747 90.184 140.531 89.432C141.331 88.68 142.283 88.304 143.387 88.304ZM161.889 83.888L167.745 98.984C167.985 99.592 168.257 100 168.561 100.208C168.865 100.4 169.145 100.504 169.401 100.52V101C169.081 100.968 168.689 100.952 168.225 100.952C167.761 100.936 167.297 100.928 166.833 100.928C166.209 100.928 165.625 100.936 165.081 100.952C164.537 100.952 164.097 100.968 163.761 101V100.52C164.577 100.488 165.097 100.352 165.321 100.112C165.545 99.856 165.497 99.32 165.177 98.504L160.713 86.576L161.097 86.264L156.921 97.112C156.665 97.752 156.513 98.296 156.465 98.744C156.417 99.176 156.457 99.52 156.585 99.776C156.729 100.032 156.961 100.216 157.281 100.328C157.617 100.44 158.033 100.504 158.529 100.52V101C158.081 100.968 157.609 100.952 157.113 100.952C156.633 100.936 156.185 100.928 155.769 100.928C155.369 100.928 155.025 100.936 154.737 100.952C154.465 100.952 154.209 100.968 153.969 101V100.52C154.289 100.44 154.617 100.256 154.953 99.968C155.289 99.664 155.593 99.152 155.865 98.432L161.505 83.888C161.569 83.888 161.633 83.888 161.697 83.888C161.761 83.888 161.825 83.888 161.889 83.888ZM164.817 94.088V94.568H157.665L157.905 94.088H164.817ZM180.87 82.184V98.384C180.87 99.104 180.998 99.64 181.254 99.992C181.526 100.328 182.006 100.496 182.694 100.496V101C182.198 100.952 181.702 100.928 181.206 100.928C180.742 100.928 180.294 100.952 179.862 101C179.446 101.048 179.062 101.136 178.71 101.264V85.064C178.71 84.344 178.582 83.816 178.326 83.48C178.07 83.128 177.59 82.952 176.886 82.952V82.448C177.398 82.496 177.894 82.52 178.374 82.52C178.838 82.52 179.278 82.496 179.694 82.448C180.126 82.384 180.518 82.296 180.87 82.184ZM175.83 88.304C176.534 88.304 177.19 88.472 177.798 88.808C178.422 89.144 178.838 89.72 179.046 90.536L178.734 90.776C178.51 90.104 178.158 89.616 177.678 89.312C177.214 89.008 176.662 88.856 176.022 88.856C175.078 88.856 174.286 89.344 173.646 90.32C173.022 91.296 172.718 92.8 172.734 94.832C172.734 96.128 172.854 97.208 173.094 98.072C173.35 98.92 173.718 99.56 174.198 99.992C174.694 100.408 175.294 100.616 175.998 100.616C176.67 100.616 177.278 100.328 177.822 99.752C178.366 99.176 178.694 98.328 178.806 97.208L179.094 97.544C178.966 98.76 178.574 99.696 177.918 100.352C177.278 101.008 176.406 101.336 175.302 101.336C174.31 101.336 173.438 101.096 172.686 100.616C171.95 100.136 171.382 99.416 170.982 98.456C170.598 97.496 170.406 96.288 170.406 94.832C170.406 93.376 170.654 92.168 171.15 91.208C171.662 90.232 172.326 89.504 173.142 89.024C173.974 88.544 174.87 88.304 175.83 88.304ZM194.863 88.64V89.12C194.559 89.152 194.279 89.288 194.023 89.528C193.767 89.768 193.527 90.192 193.303 90.8L189.367 101.12C189.303 101.12 189.239 101.12 189.175 101.12C189.111 101.12 189.039 101.12 188.959 101.12L184.543 90.488C184.287 89.864 184.031 89.488 183.775 89.36C183.535 89.216 183.327 89.144 183.151 89.144V88.64C183.471 88.656 183.799 88.68 184.135 88.712C184.487 88.728 184.863 88.736 185.263 88.736C185.759 88.736 186.279 88.728 186.823 88.712C187.383 88.696 187.903 88.672 188.383 88.64V89.144C187.983 89.144 187.623 89.176 187.303 89.24C186.999 89.288 186.799 89.44 186.703 89.696C186.623 89.952 186.703 90.392 186.943 91.016L189.943 98.432L189.799 98.552L192.535 91.376C192.743 90.848 192.823 90.432 192.775 90.128C192.743 89.808 192.583 89.568 192.295 89.408C192.023 89.248 191.599 89.152 191.023 89.12V88.64C191.311 88.656 191.559 88.672 191.767 88.688C191.975 88.688 192.175 88.696 192.367 88.712C192.575 88.712 192.799 88.712 193.039 88.712C193.407 88.712 193.735 88.704 194.023 88.688C194.327 88.672 194.607 88.656 194.863 88.64ZM198.373 82.64C198.789 82.64 199.149 82.792 199.453 83.096C199.757 83.4 199.909 83.76 199.909 84.176C199.909 84.592 199.757 84.952 199.453 85.256C199.149 85.56 198.789 85.712 198.373 85.712C197.957 85.712 197.597 85.56 197.293 85.256C196.989 84.952 196.837 84.592 196.837 84.176C196.837 83.76 196.989 83.4 197.293 83.096C197.597 82.792 197.957 82.64 198.373 82.64ZM199.621 88.376V98.768C199.621 99.44 199.757 99.896 200.029 100.136C200.317 100.376 200.789 100.496 201.445 100.496V101C201.173 100.984 200.757 100.968 200.197 100.952C199.653 100.92 199.101 100.904 198.541 100.904C197.997 100.904 197.445 100.92 196.885 100.952C196.325 100.968 195.909 100.984 195.637 101V100.496C196.293 100.496 196.757 100.376 197.029 100.136C197.317 99.896 197.461 99.44 197.461 98.768V91.256C197.461 90.536 197.333 90.008 197.077 89.672C196.821 89.32 196.341 89.144 195.637 89.144V88.64C196.149 88.688 196.645 88.712 197.125 88.712C197.589 88.712 198.029 88.688 198.445 88.64C198.877 88.576 199.269 88.488 199.621 88.376ZM208.669 88.304C209.181 88.304 209.677 88.368 210.157 88.496C210.637 88.624 211.069 88.816 211.453 89.072C211.821 89.312 212.101 89.592 212.293 89.912C212.485 90.216 212.581 90.552 212.581 90.92C212.581 91.352 212.461 91.688 212.221 91.928C211.981 92.152 211.677 92.264 211.309 92.264C210.957 92.264 210.645 92.16 210.373 91.952C210.117 91.744 209.989 91.448 209.989 91.064C209.989 90.696 210.085 90.4 210.277 90.176C210.485 89.952 210.725 89.808 210.997 89.744C210.837 89.456 210.549 89.216 210.133 89.024C209.733 88.832 209.301 88.736 208.837 88.736C208.437 88.736 208.037 88.832 207.637 89.024C207.237 89.216 206.869 89.536 206.533 89.984C206.197 90.416 205.925 91.016 205.717 91.784C205.509 92.536 205.405 93.48 205.405 94.616C205.405 96.024 205.565 97.144 205.885 97.976C206.205 98.808 206.621 99.408 207.133 99.776C207.661 100.128 208.237 100.304 208.861 100.304C209.277 100.304 209.701 100.224 210.133 100.064C210.565 99.904 210.973 99.648 211.357 99.296C211.741 98.928 212.069 98.44 212.341 97.832L212.797 98C212.637 98.512 212.373 99.032 212.005 99.56C211.637 100.072 211.157 100.496 210.565 100.832C209.973 101.168 209.245 101.336 208.381 101.336C207.389 101.336 206.493 101.08 205.693 100.568C204.893 100.056 204.253 99.328 203.773 98.384C203.309 97.424 203.077 96.288 203.077 94.976C203.077 93.664 203.309 92.512 203.773 91.52C204.253 90.512 204.917 89.728 205.765 89.168C206.613 88.592 207.581 88.304 208.669 88.304ZM220.173 88.304C221.581 88.304 222.677 88.736 223.461 89.6C224.261 90.448 224.661 91.776 224.661 93.584H216.189L216.165 93.128H222.357C222.389 92.344 222.325 91.624 222.165 90.968C222.005 90.296 221.749 89.76 221.397 89.36C221.061 88.96 220.621 88.76 220.077 88.76C219.341 88.76 218.685 89.128 218.109 89.864C217.549 90.6 217.213 91.768 217.101 93.368L217.173 93.464C217.141 93.704 217.117 93.968 217.101 94.256C217.085 94.544 217.077 94.832 217.077 95.12C217.077 96.208 217.253 97.144 217.605 97.928C217.957 98.712 218.413 99.312 218.973 99.728C219.549 100.128 220.141 100.328 220.749 100.328C221.229 100.328 221.685 100.256 222.117 100.112C222.549 99.952 222.949 99.696 223.317 99.344C223.685 98.992 224.005 98.52 224.277 97.928L224.757 98.12C224.581 98.648 224.293 99.16 223.893 99.656C223.493 100.152 222.989 100.56 222.381 100.88C221.773 101.184 221.069 101.336 220.269 101.336C219.117 101.336 218.125 101.072 217.293 100.544C216.477 100.016 215.845 99.288 215.397 98.36C214.965 97.416 214.749 96.336 214.749 95.12C214.749 93.712 214.973 92.504 215.421 91.496C215.869 90.472 216.501 89.688 217.317 89.144C218.133 88.584 219.085 88.304 220.173 88.304Z" fill="black"/>
<path fill-rule="evenodd" clip-rule="evenodd" d="M280.337 44.3286C280.457 44.4331 280.552 44.5572 280.617 44.6939C280.682 44.8306 280.715 44.9771 280.715 45.1251C280.715 45.273 280.682 45.4196 280.617 45.5562C280.552 45.6929 280.457 45.8171 280.337 45.9216L272.623 52.6716C272.504 52.7763 272.362 52.8594 272.206 52.9162C272.049 52.9729 271.882 53.0021 271.713 53.0021C271.544 53.0021 271.376 52.9729 271.22 52.9162C271.064 52.8594 270.922 52.7763 270.803 52.6716L266.945 49.2966C266.826 49.192 266.731 49.0678 266.666 48.9311C266.602 48.7945 266.568 48.648 266.568 48.5001C266.568 48.3521 266.602 48.2057 266.666 48.069C266.731 47.9323 266.826 47.8082 266.945 47.7036C267.187 47.4923 267.514 47.3736 267.856 47.3736C268.025 47.3736 268.192 47.4028 268.348 47.4594C268.505 47.516 268.646 47.599 268.766 47.7036L271.713 50.2843L278.517 44.3286C278.636 44.2238 278.778 44.1407 278.934 44.084C279.091 44.0272 279.258 43.998 279.427 43.998C279.596 43.998 279.764 44.0272 279.92 44.084C280.076 44.1407 280.218 44.2238 280.337 44.3286Z" fill="#D0398B"/>
<path d="M273 28.25C274.705 28.25 276.34 28.8426 277.546 29.8975C278.751 30.9524 279.429 32.3832 279.429 33.875V35H266.571V33.875C266.571 32.3832 267.249 30.9524 268.454 29.8975C269.66 28.8426 271.295 28.25 273 28.25ZM282 35V33.875C282 31.7864 281.052 29.7834 279.364 28.3065C277.676 26.8297 275.387 26 273 26C270.613 26 268.324 26.8297 266.636 28.3065C264.948 29.7834 264 31.7864 264 33.875V35H255V57.5C255 58.6935 255.542 59.8381 256.506 60.682C257.471 61.5259 258.779 62 260.143 62H285.857C287.221 62 288.529 61.5259 289.494 60.682C290.458 59.8381 291 58.6935 291 57.5V35H282ZM257.571 37.25H288.429V57.5C288.429 58.0967 288.158 58.669 287.675 59.091C287.193 59.5129 286.539 59.75 285.857 59.75H260.143C259.461 59.75 258.807 59.5129 258.325 59.091C257.842 58.669 257.571 58.0967 257.571 57.5V37.25Z" fill="#D0398B"/>
</svg>
