<svg width="318" height="202" viewBox="0 0 318 202" fill="none" xmlns="http://www.w3.org/2000/svg">
<rect x="247.5" y="18.5" width="51" height="51" rx="6.5" fill="#FFC5D0" stroke="black"/>
<rect width="318" height="202" rx="27" fill="white"/>
<rect x="247.5" y="18.5" width="51" height="51" rx="6.5" fill="#FFC5D0" stroke="black"/>
<path d="M40.486 83.672C41.542 83.672 42.406 83.832 43.078 84.152C43.766 84.456 44.374 84.816 44.902 85.232C45.222 85.472 45.462 85.504 45.622 85.328C45.798 85.136 45.918 84.696 45.982 84.008H46.534C46.502 84.6 46.478 85.32 46.462 86.168C46.446 87.016 46.438 88.136 46.438 89.528H45.886C45.774 88.84 45.67 88.296 45.574 87.896C45.478 87.48 45.358 87.128 45.214 86.84C45.086 86.552 44.91 86.264 44.686 85.976C44.19 85.32 43.566 84.848 42.814 84.56C42.062 84.256 41.27 84.104 40.438 84.104C39.654 84.104 38.942 84.304 38.302 84.704C37.678 85.088 37.134 85.648 36.67 86.384C36.222 87.12 35.87 88.008 35.614 89.048C35.374 90.088 35.254 91.256 35.254 92.552C35.254 93.896 35.39 95.088 35.662 96.128C35.934 97.152 36.31 98.016 36.79 98.72C37.286 99.424 37.862 99.96 38.518 100.328C39.19 100.68 39.91 100.856 40.678 100.856C41.398 100.856 42.15 100.712 42.934 100.424C43.718 100.136 44.334 99.672 44.782 99.032C45.134 98.568 45.374 98.064 45.502 97.52C45.646 96.976 45.774 96.216 45.886 95.24H46.438C46.438 96.696 46.446 97.872 46.462 98.768C46.478 99.648 46.502 100.392 46.534 101H45.982C45.918 100.312 45.806 99.88 45.646 99.704C45.502 99.528 45.254 99.552 44.902 99.776C44.31 100.192 43.678 100.56 43.006 100.88C42.35 101.184 41.502 101.336 40.462 101.336C38.942 101.336 37.606 100.992 36.454 100.304C35.318 99.616 34.43 98.624 33.79 97.328C33.166 96.032 32.854 94.472 32.854 92.648C32.854 90.856 33.182 89.288 33.838 87.944C34.494 86.6 35.39 85.552 36.526 84.8C37.678 84.048 38.998 83.672 40.486 83.672ZM54.6815 88.304C55.7055 88.304 56.6255 88.528 57.4415 88.976C58.2575 89.424 58.9055 90.128 59.3855 91.088C59.8815 92.048 60.1295 93.296 60.1295 94.832C60.1295 96.368 59.8815 97.616 59.3855 98.576C58.9055 99.52 58.2575 100.216 57.4415 100.664C56.6255 101.112 55.7055 101.336 54.6815 101.336C53.6735 101.336 52.7535 101.112 51.9215 100.664C51.1055 100.216 50.4495 99.52 49.9535 98.576C49.4735 97.616 49.2335 96.368 49.2335 94.832C49.2335 93.296 49.4735 92.048 49.9535 91.088C50.4495 90.128 51.1055 89.424 51.9215 88.976C52.7535 88.528 53.6735 88.304 54.6815 88.304ZM54.6815 88.784C53.7695 88.784 53.0175 89.256 52.4255 90.2C51.8495 91.144 51.5615 92.688 51.5615 94.832C51.5615 96.976 51.8495 98.52 52.4255 99.464C53.0175 100.392 53.7695 100.856 54.6815 100.856C55.5935 100.856 56.3375 100.392 56.9135 99.464C57.5055 98.52 57.8015 96.976 57.8015 94.832C57.8015 92.688 57.5055 91.144 56.9135 90.2C56.3375 89.256 55.5935 88.784 54.6815 88.784ZM72.8459 88.376V98.408C72.8459 99.128 72.9739 99.664 73.2299 100.016C73.5019 100.352 73.9819 100.52 74.6699 100.52V101.024C74.1739 100.976 73.6779 100.952 73.1819 100.952C72.7179 100.952 72.2699 100.976 71.8379 101.024C71.4219 101.072 71.0379 101.16 70.6859 101.288V98.456C70.2859 99.496 69.7179 100.24 68.9819 100.688C68.2619 101.12 67.5179 101.336 66.7499 101.336C66.1899 101.336 65.7019 101.256 65.2859 101.096C64.8699 100.936 64.5259 100.712 64.2539 100.424C63.9499 100.104 63.7419 99.688 63.6299 99.176C63.5179 98.664 63.4619 98.032 63.4619 97.28V91.256C63.4619 90.536 63.3339 90.008 63.0779 89.672C62.8219 89.32 62.3419 89.144 61.6379 89.144V88.64C62.1499 88.688 62.6459 88.712 63.1259 88.712C63.5899 88.712 64.0299 88.688 64.4459 88.64C64.8779 88.576 65.2699 88.488 65.6219 88.376V97.808C65.6219 98.304 65.6539 98.76 65.7179 99.176C65.7819 99.592 65.9419 99.928 66.1979 100.184C66.4539 100.44 66.8699 100.568 67.4459 100.568C68.0699 100.568 68.6219 100.376 69.1019 99.992C69.5979 99.608 69.9819 99.088 70.2539 98.432C70.5419 97.776 70.6859 97.04 70.6859 96.224V91.256C70.6859 90.536 70.5579 90.008 70.3019 89.672C70.0459 89.32 69.5659 89.144 68.8619 89.144V88.64C69.3739 88.688 69.8699 88.712 70.3499 88.712C70.8139 88.712 71.2539 88.688 71.6699 88.64C72.1019 88.576 72.4939 88.488 72.8459 88.376ZM83.3592 88.304C83.7912 88.304 84.1672 88.392 84.4872 88.568C84.8232 88.744 85.0792 88.976 85.2552 89.264C85.4472 89.536 85.5432 89.848 85.5432 90.2C85.5432 90.6 85.4152 90.952 85.1592 91.256C84.9192 91.56 84.5912 91.712 84.1752 91.712C83.8392 91.712 83.5432 91.608 83.2872 91.4C83.0312 91.176 82.9032 90.864 82.9032 90.464C82.9032 90.16 82.9832 89.904 83.1432 89.696C83.3192 89.472 83.5112 89.296 83.7192 89.168C83.6072 89.008 83.4392 88.928 83.2152 88.928C82.7192 88.928 82.2632 89.08 81.8472 89.384C81.4312 89.672 81.0792 90.048 80.7912 90.512C80.5032 90.976 80.2792 91.472 80.1192 92C79.9592 92.512 79.8792 92.992 79.8792 93.44V98.528C79.8792 99.312 80.1032 99.84 80.5512 100.112C81.0152 100.368 81.6392 100.496 82.4232 100.496V101C82.0552 100.984 81.5352 100.968 80.8632 100.952C80.1912 100.92 79.4792 100.904 78.7272 100.904C78.1832 100.904 77.6392 100.92 77.0952 100.952C76.5672 100.968 76.1672 100.984 75.8952 101V100.496C76.5512 100.496 77.0152 100.376 77.2872 100.136C77.5752 99.896 77.7192 99.44 77.7192 98.768V91.256C77.7192 90.536 77.5912 90.008 77.3352 89.672C77.0792 89.32 76.5992 89.144 75.8952 89.144V88.64C76.4072 88.688 76.9032 88.712 77.3832 88.712C77.8472 88.712 78.2872 88.688 78.7032 88.64C79.1352 88.576 79.5272 88.488 79.8792 88.376V91.376C80.0552 90.912 80.3032 90.448 80.6232 89.984C80.9592 89.504 81.3592 89.104 81.8232 88.784C82.2872 88.464 82.7992 88.304 83.3592 88.304ZM90.8787 88.304C91.5187 88.304 92.0627 88.408 92.5107 88.616C92.9587 88.824 93.2867 89.016 93.4947 89.192C94.0227 89.624 94.3427 89.336 94.4547 88.328H95.0067C94.9747 88.776 94.9507 89.312 94.9347 89.936C94.9187 90.544 94.9107 91.368 94.9107 92.408H94.3587C94.2627 91.816 94.0947 91.24 93.8547 90.68C93.6307 90.12 93.2947 89.664 92.8467 89.312C92.3987 88.944 91.8147 88.76 91.0947 88.76C90.5347 88.76 90.0627 88.92 89.6787 89.24C89.3107 89.544 89.1267 90 89.1267 90.608C89.1267 91.088 89.2707 91.504 89.5587 91.856C89.8467 92.192 90.2227 92.512 90.6867 92.816C91.1507 93.104 91.6547 93.424 92.1987 93.776C92.8067 94.16 93.3587 94.552 93.8547 94.952C94.3507 95.352 94.7427 95.792 95.0307 96.272C95.3347 96.752 95.4867 97.32 95.4867 97.976C95.4867 98.712 95.2947 99.328 94.9107 99.824C94.5267 100.32 94.0227 100.696 93.3987 100.952C92.7907 101.208 92.1187 101.336 91.3827 101.336C91.0307 101.336 90.6947 101.304 90.3747 101.24C90.0707 101.192 89.7747 101.112 89.4867 101C89.3267 100.92 89.1587 100.824 88.9827 100.712C88.8227 100.6 88.6627 100.48 88.5027 100.352C88.3427 100.224 88.1987 100.232 88.0707 100.376C87.9427 100.504 87.8467 100.768 87.7827 101.168H87.2307C87.2627 100.656 87.2867 100.032 87.3027 99.296C87.3187 98.56 87.3267 97.584 87.3267 96.368H87.8787C87.9907 97.264 88.1507 98.048 88.3587 98.72C88.5667 99.392 88.8947 99.92 89.3427 100.304C89.7907 100.672 90.4147 100.856 91.2147 100.856C91.5347 100.856 91.8547 100.784 92.1747 100.64C92.5107 100.496 92.7907 100.256 93.0147 99.92C93.2387 99.584 93.3507 99.136 93.3507 98.576C93.3507 97.872 93.0947 97.296 92.5827 96.848C92.0707 96.4 91.4227 95.928 90.6387 95.432C90.0627 95.064 89.5187 94.696 89.0067 94.328C88.5107 93.96 88.1027 93.544 87.7827 93.08C87.4787 92.616 87.3267 92.056 87.3267 91.4C87.3267 90.68 87.4867 90.096 87.8067 89.648C88.1427 89.184 88.5827 88.848 89.1267 88.64C89.6707 88.416 90.2547 88.304 90.8787 88.304ZM103.149 88.304C104.557 88.304 105.653 88.736 106.437 89.6C107.237 90.448 107.637 91.776 107.637 93.584H99.1651L99.1411 93.128H105.333C105.365 92.344 105.301 91.624 105.141 90.968C104.981 90.296 104.725 89.76 104.373 89.36C104.037 88.96 103.597 88.76 103.053 88.76C102.317 88.76 101.661 89.128 101.085 89.864C100.525 90.6 100.189 91.768 100.077 93.368L100.149 93.464C100.117 93.704 100.093 93.968 100.077 94.256C100.061 94.544 100.053 94.832 100.053 95.12C100.053 96.208 100.229 97.144 100.581 97.928C100.933 98.712 101.389 99.312 101.949 99.728C102.525 100.128 103.117 100.328 103.725 100.328C104.205 100.328 104.661 100.256 105.093 100.112C105.525 99.952 105.925 99.696 106.293 99.344C106.661 98.992 106.981 98.52 107.253 97.928L107.733 98.12C107.557 98.648 107.269 99.16 106.869 99.656C106.469 100.152 105.965 100.56 105.357 100.88C104.749 101.184 104.045 101.336 103.245 101.336C102.093 101.336 101.101 101.072 100.269 100.544C99.4531 100.016 98.8211 99.288 98.3731 98.36C97.9411 97.416 97.7251 96.336 97.7251 95.12C97.7251 93.712 97.9491 92.504 98.3971 91.496C98.8451 90.472 99.4771 89.688 100.293 89.144C101.109 88.584 102.061 88.304 103.149 88.304ZM113.754 88.304C114.394 88.304 114.938 88.408 115.386 88.616C115.834 88.824 116.162 89.016 116.37 89.192C116.898 89.624 117.218 89.336 117.33 88.328H117.882C117.85 88.776 117.826 89.312 117.81 89.936C117.794 90.544 117.786 91.368 117.786 92.408H117.234C117.138 91.816 116.97 91.24 116.73 90.68C116.506 90.12 116.17 89.664 115.722 89.312C115.274 88.944 114.69 88.76 113.97 88.76C113.41 88.76 112.938 88.92 112.554 89.24C112.186 89.544 112.002 90 112.002 90.608C112.002 91.088 112.146 91.504 112.434 91.856C112.722 92.192 113.098 92.512 113.562 92.816C114.026 93.104 114.53 93.424 115.074 93.776C115.682 94.16 116.234 94.552 116.73 94.952C117.226 95.352 117.618 95.792 117.906 96.272C118.21 96.752 118.362 97.32 118.362 97.976C118.362 98.712 118.17 99.328 117.786 99.824C117.402 100.32 116.898 100.696 116.274 100.952C115.666 101.208 114.994 101.336 114.258 101.336C113.906 101.336 113.57 101.304 113.25 101.24C112.946 101.192 112.65 101.112 112.362 101C112.202 100.92 112.034 100.824 111.858 100.712C111.698 100.6 111.538 100.48 111.378 100.352C111.218 100.224 111.074 100.232 110.946 100.376C110.818 100.504 110.722 100.768 110.658 101.168H110.106C110.138 100.656 110.162 100.032 110.178 99.296C110.194 98.56 110.202 97.584 110.202 96.368H110.754C110.866 97.264 111.026 98.048 111.234 98.72C111.442 99.392 111.77 99.92 112.218 100.304C112.666 100.672 113.29 100.856 114.09 100.856C114.41 100.856 114.73 100.784 115.05 100.64C115.386 100.496 115.666 100.256 115.89 99.92C116.114 99.584 116.226 99.136 116.226 98.576C116.226 97.872 115.97 97.296 115.458 96.848C114.946 96.4 114.298 95.928 113.514 95.432C112.938 95.064 112.394 94.696 111.882 94.328C111.386 93.96 110.978 93.544 110.658 93.08C110.354 92.616 110.202 92.056 110.202 91.4C110.202 90.68 110.362 90.096 110.682 89.648C111.018 89.184 111.458 88.848 112.002 88.64C112.546 88.416 113.13 88.304 113.754 88.304ZM129.577 101.168C128.921 101.168 128.353 101.048 127.873 100.808C127.393 100.552 127.025 100.2 126.769 99.752C126.529 99.304 126.409 98.784 126.409 98.192C126.409 97.488 126.569 96.912 126.889 96.464C127.225 96.016 127.649 95.656 128.161 95.384C128.673 95.112 129.209 94.888 129.769 94.712C130.345 94.52 130.889 94.344 131.401 94.184C131.913 94.008 132.329 93.808 132.649 93.584C132.985 93.36 133.153 93.064 133.153 92.696V91.208C133.153 90.536 133.049 90.024 132.841 89.672C132.649 89.32 132.385 89.088 132.049 88.976C131.713 88.848 131.337 88.784 130.921 88.784C130.521 88.784 130.089 88.84 129.625 88.952C129.177 89.064 128.817 89.296 128.545 89.648C128.849 89.712 129.113 89.872 129.337 90.128C129.561 90.384 129.673 90.712 129.673 91.112C129.673 91.512 129.545 91.832 129.289 92.072C129.033 92.296 128.705 92.408 128.305 92.408C127.841 92.408 127.497 92.264 127.273 91.976C127.065 91.672 126.961 91.336 126.961 90.968C126.961 90.552 127.065 90.216 127.273 89.96C127.481 89.704 127.745 89.464 128.065 89.24C128.433 88.984 128.905 88.768 129.481 88.592C130.073 88.4 130.737 88.304 131.473 88.304C132.129 88.304 132.689 88.384 133.153 88.544C133.617 88.688 134.001 88.904 134.305 89.192C134.721 89.576 134.993 90.048 135.121 90.608C135.249 91.152 135.313 91.808 135.313 92.576V99.248C135.313 99.648 135.369 99.936 135.481 100.112C135.609 100.288 135.801 100.376 136.057 100.376C136.233 100.376 136.401 100.336 136.561 100.256C136.721 100.176 136.913 100.048 137.137 99.872L137.401 100.28C137.065 100.536 136.745 100.752 136.441 100.928C136.137 101.088 135.729 101.168 135.217 101.168C134.753 101.168 134.369 101.088 134.065 100.928C133.761 100.768 133.529 100.536 133.369 100.232C133.225 99.912 133.153 99.512 133.153 99.032C132.721 99.752 132.201 100.288 131.593 100.64C131.001 100.992 130.329 101.168 129.577 101.168ZM130.441 100.208C130.969 100.208 131.457 100.056 131.905 99.752C132.369 99.448 132.785 98.992 133.153 98.384V93.68C132.961 93.952 132.681 94.184 132.313 94.376C131.945 94.552 131.545 94.736 131.113 94.928C130.681 95.104 130.265 95.32 129.865 95.576C129.481 95.816 129.161 96.136 128.905 96.536C128.649 96.936 128.521 97.456 128.521 98.096C128.521 98.736 128.689 99.248 129.025 99.632C129.377 100.016 129.849 100.208 130.441 100.208ZM146.186 88.304C146.794 88.304 147.298 88.384 147.698 88.544C148.114 88.704 148.458 88.928 148.73 89.216C149.034 89.536 149.25 89.936 149.378 90.416C149.506 90.896 149.57 91.544 149.57 92.36V98.768C149.57 99.44 149.706 99.896 149.978 100.136C150.266 100.376 150.738 100.496 151.394 100.496V101C151.122 100.984 150.706 100.968 150.146 100.952C149.586 100.92 149.042 100.904 148.514 100.904C147.986 100.904 147.466 100.92 146.954 100.952C146.458 100.968 146.082 100.984 145.826 101V100.496C146.402 100.496 146.81 100.376 147.05 100.136C147.29 99.896 147.41 99.44 147.41 98.768V91.832C147.41 91.336 147.37 90.88 147.29 90.464C147.21 90.048 147.026 89.712 146.738 89.456C146.466 89.2 146.042 89.072 145.466 89.072C144.794 89.072 144.202 89.264 143.69 89.648C143.194 90.032 142.802 90.56 142.514 91.232C142.242 91.888 142.106 92.624 142.106 93.44V98.768C142.106 99.44 142.226 99.896 142.466 100.136C142.706 100.376 143.114 100.496 143.69 100.496V101C143.434 100.984 143.05 100.968 142.538 100.952C142.042 100.92 141.53 100.904 141.002 100.904C140.474 100.904 139.93 100.92 139.37 100.952C138.81 100.968 138.394 100.984 138.122 101V100.496C138.778 100.496 139.242 100.376 139.514 100.136C139.802 99.896 139.946 99.44 139.946 98.768V91.256C139.946 90.536 139.818 90.008 139.562 89.672C139.306 89.32 138.826 89.144 138.122 89.144V88.64C138.634 88.688 139.13 88.712 139.61 88.712C140.074 88.712 140.514 88.688 140.93 88.64C141.362 88.576 141.754 88.488 142.106 88.376V91.208C142.522 90.12 143.098 89.368 143.834 88.952C144.586 88.52 145.37 88.304 146.186 88.304ZM163.362 82.184V98.384C163.362 99.104 163.49 99.64 163.746 99.992C164.018 100.328 164.498 100.496 165.186 100.496V101C164.69 100.952 164.194 100.928 163.698 100.928C163.234 100.928 162.786 100.952 162.354 101C161.938 101.048 161.554 101.136 161.202 101.264V85.064C161.202 84.344 161.074 83.816 160.818 83.48C160.562 83.128 160.082 82.952 159.378 82.952V82.448C159.89 82.496 160.386 82.52 160.866 82.52C161.33 82.52 161.77 82.496 162.186 82.448C162.618 82.384 163.01 82.296 163.362 82.184ZM158.322 88.304C159.026 88.304 159.682 88.472 160.29 88.808C160.914 89.144 161.33 89.72 161.538 90.536L161.226 90.776C161.002 90.104 160.65 89.616 160.17 89.312C159.706 89.008 159.154 88.856 158.514 88.856C157.57 88.856 156.778 89.344 156.138 90.32C155.514 91.296 155.21 92.8 155.226 94.832C155.226 96.128 155.346 97.208 155.586 98.072C155.842 98.92 156.21 99.56 156.69 99.992C157.186 100.408 157.786 100.616 158.49 100.616C159.162 100.616 159.77 100.328 160.314 99.752C160.858 99.176 161.186 98.328 161.298 97.208L161.586 97.544C161.458 98.76 161.066 99.696 160.41 100.352C159.77 101.008 158.898 101.336 157.794 101.336C156.802 101.336 155.93 101.096 155.178 100.616C154.442 100.136 153.874 99.416 153.474 98.456C153.09 97.496 152.898 96.288 152.898 94.832C152.898 93.376 153.146 92.168 153.642 91.208C154.154 90.232 154.818 89.504 155.634 89.024C156.466 88.544 157.362 88.304 158.322 88.304ZM178.6 83.888L184.456 98.984C184.696 99.592 184.968 100 185.272 100.208C185.576 100.4 185.856 100.504 186.112 100.52V101C185.792 100.968 185.4 100.952 184.936 100.952C184.472 100.936 184.008 100.928 183.544 100.928C182.92 100.928 182.336 100.936 181.792 100.952C181.248 100.952 180.808 100.968 180.472 101V100.52C181.288 100.488 181.808 100.352 182.032 100.112C182.256 99.856 182.208 99.32 181.888 98.504L177.424 86.576L177.808 86.264L173.632 97.112C173.376 97.752 173.224 98.296 173.176 98.744C173.128 99.176 173.168 99.52 173.296 99.776C173.44 100.032 173.672 100.216 173.992 100.328C174.328 100.44 174.744 100.504 175.24 100.52V101C174.792 100.968 174.32 100.952 173.824 100.952C173.344 100.936 172.896 100.928 172.48 100.928C172.08 100.928 171.736 100.936 171.448 100.952C171.176 100.952 170.92 100.968 170.68 101V100.52C171 100.44 171.328 100.256 171.664 99.968C172 99.664 172.304 99.152 172.576 98.432L178.216 83.888C178.28 83.888 178.344 83.888 178.408 83.888C178.472 83.888 178.536 83.888 178.6 83.888ZM181.528 94.088V94.568H174.376L174.616 94.088H181.528ZM192.661 88.304C193.173 88.304 193.669 88.368 194.149 88.496C194.629 88.624 195.061 88.816 195.445 89.072C195.813 89.312 196.093 89.592 196.285 89.912C196.477 90.216 196.573 90.552 196.573 90.92C196.573 91.352 196.453 91.688 196.213 91.928C195.973 92.152 195.669 92.264 195.301 92.264C194.949 92.264 194.637 92.16 194.365 91.952C194.109 91.744 193.981 91.448 193.981 91.064C193.981 90.696 194.077 90.4 194.269 90.176C194.477 89.952 194.717 89.808 194.989 89.744C194.829 89.456 194.541 89.216 194.125 89.024C193.725 88.832 193.293 88.736 192.829 88.736C192.429 88.736 192.029 88.832 191.629 89.024C191.229 89.216 190.861 89.536 190.525 89.984C190.189 90.416 189.917 91.016 189.709 91.784C189.501 92.536 189.397 93.48 189.397 94.616C189.397 96.024 189.557 97.144 189.877 97.976C190.197 98.808 190.613 99.408 191.125 99.776C191.653 100.128 192.229 100.304 192.853 100.304C193.269 100.304 193.693 100.224 194.125 100.064C194.557 99.904 194.965 99.648 195.349 99.296C195.733 98.928 196.061 98.44 196.333 97.832L196.789 98C196.629 98.512 196.365 99.032 195.997 99.56C195.629 100.072 195.149 100.496 194.557 100.832C193.965 101.168 193.237 101.336 192.373 101.336C191.381 101.336 190.485 101.08 189.685 100.568C188.885 100.056 188.245 99.328 187.765 98.384C187.301 97.424 187.069 96.288 187.069 94.976C187.069 93.664 187.301 92.512 187.765 91.52C188.245 90.512 188.909 89.728 189.757 89.168C190.605 88.592 191.573 88.304 192.661 88.304ZM201.741 101.168C201.085 101.168 200.517 101.048 200.037 100.808C199.557 100.552 199.189 100.2 198.933 99.752C198.693 99.304 198.573 98.784 198.573 98.192C198.573 97.488 198.733 96.912 199.053 96.464C199.389 96.016 199.813 95.656 200.325 95.384C200.837 95.112 201.373 94.888 201.933 94.712C202.509 94.52 203.053 94.344 203.565 94.184C204.077 94.008 204.493 93.808 204.813 93.584C205.149 93.36 205.317 93.064 205.317 92.696V91.208C205.317 90.536 205.213 90.024 205.005 89.672C204.813 89.32 204.549 89.088 204.213 88.976C203.877 88.848 203.501 88.784 203.085 88.784C202.685 88.784 202.253 88.84 201.789 88.952C201.341 89.064 200.981 89.296 200.709 89.648C201.013 89.712 201.277 89.872 201.501 90.128C201.725 90.384 201.837 90.712 201.837 91.112C201.837 91.512 201.709 91.832 201.453 92.072C201.197 92.296 200.869 92.408 200.469 92.408C200.005 92.408 199.661 92.264 199.437 91.976C199.229 91.672 199.125 91.336 199.125 90.968C199.125 90.552 199.229 90.216 199.437 89.96C199.645 89.704 199.909 89.464 200.229 89.24C200.597 88.984 201.069 88.768 201.645 88.592C202.237 88.4 202.901 88.304 203.637 88.304C204.293 88.304 204.853 88.384 205.317 88.544C205.781 88.688 206.165 88.904 206.469 89.192C206.885 89.576 207.157 90.048 207.285 90.608C207.413 91.152 207.477 91.808 207.477 92.576V99.248C207.477 99.648 207.533 99.936 207.645 100.112C207.773 100.288 207.965 100.376 208.221 100.376C208.397 100.376 208.565 100.336 208.725 100.256C208.885 100.176 209.077 100.048 209.301 99.872L209.565 100.28C209.229 100.536 208.909 100.752 208.605 100.928C208.301 101.088 207.893 101.168 207.381 101.168C206.917 101.168 206.533 101.088 206.229 100.928C205.925 100.768 205.693 100.536 205.533 100.232C205.389 99.912 205.317 99.512 205.317 99.032C204.885 99.752 204.365 100.288 203.757 100.64C203.165 100.992 202.493 101.168 201.741 101.168ZM202.605 100.208C203.133 100.208 203.621 100.056 204.069 99.752C204.533 99.448 204.949 98.992 205.317 98.384V93.68C205.125 93.952 204.845 94.184 204.477 94.376C204.109 94.552 203.709 94.736 203.277 94.928C202.845 95.104 202.429 95.32 202.029 95.576C201.645 95.816 201.325 96.136 201.069 96.536C200.813 96.936 200.685 97.456 200.685 98.096C200.685 98.736 200.853 99.248 201.189 99.632C201.541 100.016 202.013 100.208 202.605 100.208ZM221.206 82.184V98.384C221.206 99.104 221.334 99.64 221.59 99.992C221.862 100.328 222.342 100.496 223.03 100.496V101C222.534 100.952 222.038 100.928 221.542 100.928C221.078 100.928 220.63 100.952 220.198 101C219.782 101.048 219.398 101.136 219.046 101.264V85.064C219.046 84.344 218.918 83.816 218.662 83.48C218.406 83.128 217.926 82.952 217.222 82.952V82.448C217.734 82.496 218.23 82.52 218.71 82.52C219.174 82.52 219.614 82.496 220.03 82.448C220.462 82.384 220.854 82.296 221.206 82.184ZM216.166 88.304C216.87 88.304 217.526 88.472 218.134 88.808C218.758 89.144 219.174 89.72 219.382 90.536L219.07 90.776C218.846 90.104 218.494 89.616 218.014 89.312C217.55 89.008 216.998 88.856 216.358 88.856C215.414 88.856 214.622 89.344 213.982 90.32C213.358 91.296 213.054 92.8 213.07 94.832C213.07 96.128 213.19 97.208 213.43 98.072C213.686 98.92 214.054 99.56 214.534 99.992C215.03 100.408 215.63 100.616 216.334 100.616C217.006 100.616 217.614 100.328 218.158 99.752C218.702 99.176 219.03 98.328 219.142 97.208L219.43 97.544C219.302 98.76 218.91 99.696 218.254 100.352C217.614 101.008 216.742 101.336 215.638 101.336C214.646 101.336 213.774 101.096 213.022 100.616C212.286 100.136 211.718 99.416 211.318 98.456C210.934 97.496 210.742 96.288 210.742 94.832C210.742 93.376 210.99 92.168 211.486 91.208C211.998 90.232 212.662 89.504 213.478 89.024C214.31 88.544 215.206 88.304 216.166 88.304ZM230.063 88.304C231.471 88.304 232.567 88.736 233.351 89.6C234.151 90.448 234.551 91.776 234.551 93.584H226.079L226.055 93.128H232.247C232.279 92.344 232.215 91.624 232.055 90.968C231.895 90.296 231.639 89.76 231.287 89.36C230.951 88.96 230.511 88.76 229.967 88.76C229.231 88.76 228.575 89.128 227.999 89.864C227.439 90.6 227.103 91.768 226.991 93.368L227.063 93.464C227.031 93.704 227.007 93.968 226.991 94.256C226.975 94.544 226.967 94.832 226.967 95.12C226.967 96.208 227.143 97.144 227.495 97.928C227.847 98.712 228.303 99.312 228.863 99.728C229.439 100.128 230.031 100.328 230.639 100.328C231.119 100.328 231.575 100.256 232.007 100.112C232.439 99.952 232.839 99.696 233.207 99.344C233.575 98.992 233.895 98.52 234.167 97.928L234.647 98.12C234.471 98.648 234.183 99.16 233.783 99.656C233.383 100.152 232.879 100.56 232.271 100.88C231.663 101.184 230.959 101.336 230.159 101.336C229.007 101.336 228.015 101.072 227.183 100.544C226.367 100.016 225.735 99.288 225.287 98.36C224.855 97.416 224.639 96.336 224.639 95.12C224.639 93.712 224.863 92.504 225.311 91.496C225.759 90.472 226.391 89.688 227.207 89.144C228.023 88.584 228.975 88.304 230.063 88.304ZM244.292 88.304C244.852 88.304 245.34 88.384 245.756 88.544C246.172 88.704 246.516 88.928 246.788 89.216C247.092 89.536 247.3 89.952 247.412 90.464C247.524 90.976 247.58 91.608 247.58 92.36V98.768C247.58 99.44 247.716 99.896 247.988 100.136C248.276 100.376 248.748 100.496 249.404 100.496V101C249.132 100.984 248.716 100.968 248.156 100.952C247.596 100.92 247.052 100.904 246.524 100.904C245.996 100.904 245.476 100.92 244.964 100.952C244.468 100.968 244.092 100.984 243.836 101V100.496C244.412 100.496 244.82 100.376 245.06 100.136C245.3 99.896 245.42 99.44 245.42 98.768V91.832C245.42 91.336 245.388 90.88 245.324 90.464C245.26 90.048 245.1 89.712 244.844 89.456C244.588 89.2 244.172 89.072 243.596 89.072C242.972 89.072 242.412 89.264 241.916 89.648C241.436 90.032 241.052 90.56 240.764 91.232C240.492 91.888 240.356 92.624 240.356 93.44V98.768C240.356 99.44 240.476 99.896 240.716 100.136C240.956 100.376 241.364 100.496 241.94 100.496V101C241.684 100.984 241.3 100.968 240.788 100.952C240.292 100.92 239.78 100.904 239.252 100.904C238.724 100.904 238.18 100.92 237.62 100.952C237.06 100.968 236.644 100.984 236.372 101V100.496C237.028 100.496 237.492 100.376 237.764 100.136C238.052 99.896 238.196 99.44 238.196 98.768V91.256C238.196 90.536 238.068 90.008 237.812 89.672C237.556 89.32 237.076 89.144 236.372 89.144V88.64C236.884 88.688 237.38 88.712 237.86 88.712C238.324 88.712 238.764 88.688 239.18 88.64C239.612 88.576 240.004 88.488 240.356 88.376V91.208C240.772 90.168 241.34 89.424 242.06 88.976C242.78 88.528 243.524 88.304 244.292 88.304ZM251.516 88.304C252.076 88.304 252.564 88.384 252.98 88.544C253.396 88.704 253.74 88.928 254.012 89.216C254.316 89.536 254.524 89.952 254.636 90.464C254.748 90.976 254.804 91.608 254.804 92.36V98.768C254.804 99.44 254.94 99.896 255.212 100.136C255.5 100.376 255.972 100.496 256.628 100.496V101C256.356 100.984 255.94 100.968 255.38 100.952C254.82 100.92 254.276 100.904 253.748 100.904C253.22 100.904 252.7 100.92 252.188 100.952C251.692 100.968 251.316 100.984 251.06 101V100.496C251.636 100.496 252.044 100.376 252.284 100.136C252.524 99.896 252.644 99.44 252.644 98.768V91.832C252.644 91.336 252.612 90.88 252.548 90.464C252.484 90.048 252.324 89.712 252.068 89.456C251.812 89.2 251.396 89.072 250.82 89.072C250.196 89.072 249.636 89.264 249.14 89.648C248.66 90.032 248.276 90.552 247.988 91.208C247.716 91.864 247.58 92.6 247.58 93.416L247.508 91.184C247.94 90.08 248.524 89.328 249.26 88.928C249.996 88.512 250.748 88.304 251.516 88.304ZM260.412 82.64C260.828 82.64 261.188 82.792 261.492 83.096C261.796 83.4 261.948 83.76 261.948 84.176C261.948 84.592 261.796 84.952 261.492 85.256C261.188 85.56 260.828 85.712 260.412 85.712C259.996 85.712 259.636 85.56 259.332 85.256C259.028 84.952 258.876 84.592 258.876 84.176C258.876 83.76 259.028 83.4 259.332 83.096C259.636 82.792 259.996 82.64 260.412 82.64ZM261.66 88.376V98.768C261.66 99.44 261.796 99.896 262.068 100.136C262.356 100.376 262.828 100.496 263.484 100.496V101C263.212 100.984 262.796 100.968 262.236 100.952C261.692 100.92 261.14 100.904 260.58 100.904C260.036 100.904 259.484 100.92 258.924 100.952C258.364 100.968 257.948 100.984 257.676 101V100.496C258.332 100.496 258.796 100.376 259.068 100.136C259.356 99.896 259.5 99.44 259.5 98.768V91.256C259.5 90.536 259.372 90.008 259.116 89.672C258.86 89.32 258.38 89.144 257.676 89.144V88.64C258.188 88.688 258.684 88.712 259.164 88.712C259.628 88.712 260.068 88.688 260.484 88.64C260.916 88.576 261.308 88.488 261.66 88.376ZM270.708 88.304C271.22 88.304 271.716 88.368 272.196 88.496C272.676 88.624 273.108 88.816 273.492 89.072C273.86 89.312 274.14 89.592 274.332 89.912C274.524 90.216 274.62 90.552 274.62 90.92C274.62 91.352 274.5 91.688 274.26 91.928C274.02 92.152 273.716 92.264 273.348 92.264C272.996 92.264 272.684 92.16 272.412 91.952C272.156 91.744 272.028 91.448 272.028 91.064C272.028 90.696 272.124 90.4 272.316 90.176C272.524 89.952 272.764 89.808 273.036 89.744C272.876 89.456 272.588 89.216 272.172 89.024C271.772 88.832 271.34 88.736 270.876 88.736C270.476 88.736 270.076 88.832 269.676 89.024C269.276 89.216 268.908 89.536 268.572 89.984C268.236 90.416 267.964 91.016 267.756 91.784C267.548 92.536 267.444 93.48 267.444 94.616C267.444 96.024 267.604 97.144 267.924 97.976C268.244 98.808 268.66 99.408 269.172 99.776C269.7 100.128 270.276 100.304 270.9 100.304C271.316 100.304 271.74 100.224 272.172 100.064C272.604 99.904 273.012 99.648 273.396 99.296C273.78 98.928 274.108 98.44 274.38 97.832L274.836 98C274.676 98.512 274.412 99.032 274.044 99.56C273.676 100.072 273.196 100.496 272.604 100.832C272.012 101.168 271.284 101.336 270.42 101.336C269.428 101.336 268.532 101.08 267.732 100.568C266.932 100.056 266.292 99.328 265.812 98.384C265.348 97.424 265.116 96.288 265.116 94.976C265.116 93.664 265.348 92.512 265.812 91.52C266.292 90.512 266.956 89.728 267.804 89.168C268.652 88.592 269.62 88.304 270.708 88.304ZM280.676 88.304C281.316 88.304 281.86 88.408 282.308 88.616C282.756 88.824 283.084 89.016 283.292 89.192C283.82 89.624 284.14 89.336 284.252 88.328H284.804C284.772 88.776 284.748 89.312 284.732 89.936C284.716 90.544 284.708 91.368 284.708 92.408H284.156C284.06 91.816 283.892 91.24 283.652 90.68C283.428 90.12 283.092 89.664 282.644 89.312C282.196 88.944 281.612 88.76 280.892 88.76C280.332 88.76 279.86 88.92 279.476 89.24C279.108 89.544 278.924 90 278.924 90.608C278.924 91.088 279.068 91.504 279.356 91.856C279.644 92.192 280.02 92.512 280.484 92.816C280.948 93.104 281.452 93.424 281.996 93.776C282.604 94.16 283.156 94.552 283.652 94.952C284.148 95.352 284.54 95.792 284.828 96.272C285.132 96.752 285.284 97.32 285.284 97.976C285.284 98.712 285.092 99.328 284.708 99.824C284.324 100.32 283.82 100.696 283.196 100.952C282.588 101.208 281.916 101.336 281.18 101.336C280.828 101.336 280.492 101.304 280.172 101.24C279.868 101.192 279.572 101.112 279.284 101C279.124 100.92 278.956 100.824 278.78 100.712C278.62 100.6 278.46 100.48 278.3 100.352C278.14 100.224 277.996 100.232 277.868 100.376C277.74 100.504 277.644 100.768 277.58 101.168H277.028C277.06 100.656 277.084 100.032 277.1 99.296C277.116 98.56 277.124 97.584 277.124 96.368H277.676C277.788 97.264 277.948 98.048 278.156 98.72C278.364 99.392 278.692 99.92 279.14 100.304C279.588 100.672 280.212 100.856 281.012 100.856C281.332 100.856 281.652 100.784 281.972 100.64C282.308 100.496 282.588 100.256 282.812 99.92C283.036 99.584 283.148 99.136 283.148 98.576C283.148 97.872 282.892 97.296 282.38 96.848C281.868 96.4 281.22 95.928 280.436 95.432C279.86 95.064 279.316 94.696 278.804 94.328C278.308 93.96 277.9 93.544 277.58 93.08C277.276 92.616 277.124 92.056 277.124 91.4C277.124 90.68 277.284 90.096 277.604 89.648C277.94 89.184 278.38 88.848 278.924 88.64C279.468 88.416 280.052 88.304 280.676 88.304Z" fill="black"/>
<path d="M284.935 27.1514L285.277 26.8099C285.534 26.553 285.839 26.3493 286.175 26.2103C286.51 26.0714 286.87 25.9999 287.234 26C287.597 26.0001 287.957 26.0718 288.293 26.211C288.628 26.3501 288.933 26.554 289.19 26.8111C289.447 27.0681 289.651 27.3732 289.79 27.709C289.929 28.0448 290 28.4047 290 28.7681C290 29.1315 289.928 29.4913 289.789 29.827C289.65 30.1627 289.446 30.4677 289.189 30.7246L288.847 31.0638C289.432 31.719 289.743 32.5728 289.718 33.4502C289.693 34.3277 289.333 35.1622 288.712 35.7829L265.124 59.3739C264.977 59.5205 264.792 59.6243 264.59 59.6741L255.423 61.966C255.231 62.0138 255.03 62.0111 254.84 61.9583C254.649 61.9054 254.475 61.8042 254.336 61.6644C254.196 61.5246 254.095 61.351 254.042 61.1604C253.989 60.9699 253.986 60.769 254.034 60.5771L256.326 51.4094C256.376 51.2082 256.48 51.0245 256.626 50.8776L278.724 28.7787C278.503 28.6232 278.234 28.5507 277.965 28.5742C277.696 28.5977 277.444 28.7156 277.253 28.9071L269.708 36.4544C269.602 36.561 269.475 36.6455 269.336 36.7032C269.197 36.7608 269.047 36.7905 268.897 36.7905C268.746 36.7905 268.597 36.7608 268.458 36.7032C268.318 36.6455 268.192 36.561 268.085 36.4544C267.979 36.3479 267.894 36.2214 267.837 36.0822C267.779 35.943 267.749 35.7938 267.749 35.6431C267.749 35.4924 267.779 35.3432 267.837 35.204C267.894 35.0648 267.979 34.9383 268.085 34.8317L275.635 27.2867C276.256 26.6656 277.091 26.3058 277.969 26.281C278.847 26.2563 279.701 26.5686 280.356 27.1537C280.986 26.5909 281.801 26.2796 282.645 26.2792C283.49 26.2788 284.305 26.5893 284.935 27.1514ZM283.459 28.9071C283.244 28.6922 282.953 28.5715 282.649 28.5715C282.345 28.5715 282.054 28.6922 281.839 28.9071L258.469 52.2734L256.718 59.2799L263.724 57.5288L287.094 34.1625C287.201 34.056 287.286 33.9296 287.343 33.7904C287.401 33.6511 287.431 33.5019 287.431 33.3511C287.431 33.2004 287.401 33.0512 287.343 32.9119C287.286 32.7727 287.201 32.6462 287.094 32.5398L283.462 28.9071H283.459Z" fill="#D0398B"/>
</svg>
