<svg width="318" height="202" viewBox="0 0 318 202" fill="none" xmlns="http://www.w3.org/2000/svg">
<rect x="247.5" y="18.5" width="51" height="51" rx="6.5" fill="#FFC5D0" stroke="black"/>
<rect width="318" height="202" rx="27" fill="white"/>
<rect x="247.5" y="18.5" width="51" height="51" rx="6.5" fill="#FFC5D0" stroke="black"/>
<path d="M97.5127 101V100.52C98.0567 100.488 98.4647 100.424 98.7367 100.328C99.0247 100.232 99.2167 100.04 99.3127 99.752C99.4087 99.464 99.4567 99.032 99.4567 98.456V86.552C99.4567 85.96 99.4087 85.528 99.3127 85.256C99.2167 84.968 99.0247 84.776 98.7367 84.68C98.4647 84.568 98.0567 84.504 97.5127 84.488V84.008C97.8807 84.024 98.3447 84.04 98.9047 84.056C99.4647 84.072 100.017 84.08 100.561 84.08C101.185 84.08 101.769 84.072 102.313 84.056C102.857 84.04 103.297 84.024 103.633 84.008V84.488C103.089 84.504 102.673 84.568 102.385 84.68C102.113 84.776 101.929 84.968 101.833 85.256C101.737 85.528 101.689 85.96 101.689 86.552V98.456C101.689 99.032 101.737 99.464 101.833 99.752C101.929 100.04 102.113 100.232 102.385 100.328C102.673 100.424 103.089 100.488 103.633 100.52V101C103.297 100.968 102.857 100.952 102.313 100.952C101.769 100.936 101.185 100.928 100.561 100.928C100.017 100.928 99.4647 100.936 98.9047 100.952C98.3447 100.952 97.8807 100.968 97.5127 101ZM87.4807 101V100.52C88.0247 100.488 88.4327 100.424 88.7047 100.328C88.9927 100.232 89.1847 100.04 89.2807 99.752C89.3767 99.464 89.4247 99.032 89.4247 98.456V86.552C89.4247 85.96 89.3767 85.528 89.2807 85.256C89.1847 84.968 88.9927 84.776 88.7047 84.68C88.4327 84.568 88.0247 84.504 87.4807 84.488V84.008C87.8167 84.024 88.2567 84.04 88.8007 84.056C89.3447 84.072 89.9287 84.08 90.5527 84.08C91.1127 84.08 91.6647 84.072 92.2087 84.056C92.7687 84.04 93.2327 84.024 93.6007 84.008V84.488C93.0567 84.504 92.6407 84.568 92.3527 84.68C92.0807 84.776 91.8967 84.968 91.8007 85.256C91.7047 85.528 91.6567 85.96 91.6567 86.552V98.456C91.6567 99.032 91.7047 99.464 91.8007 99.752C91.8967 100.04 92.0807 100.232 92.3527 100.328C92.6407 100.424 93.0567 100.488 93.6007 100.52V101C93.2327 100.968 92.7687 100.952 92.2087 100.952C91.6647 100.936 91.1127 100.928 90.5527 100.928C89.9287 100.928 89.3447 100.936 88.8007 100.952C88.2567 100.952 87.8167 100.968 87.4807 101ZM90.8167 92.696V92.216H100.297V92.696H90.8167ZM110.791 88.304C111.815 88.304 112.735 88.528 113.551 88.976C114.367 89.424 115.015 90.128 115.495 91.088C115.991 92.048 116.239 93.296 116.239 94.832C116.239 96.368 115.991 97.616 115.495 98.576C115.015 99.52 114.367 100.216 113.551 100.664C112.735 101.112 111.815 101.336 110.791 101.336C109.783 101.336 108.863 101.112 108.031 100.664C107.215 100.216 106.559 99.52 106.063 98.576C105.583 97.616 105.343 96.368 105.343 94.832C105.343 93.296 105.583 92.048 106.063 91.088C106.559 90.128 107.215 89.424 108.031 88.976C108.863 88.528 109.783 88.304 110.791 88.304ZM110.791 88.784C109.879 88.784 109.127 89.256 108.535 90.2C107.959 91.144 107.671 92.688 107.671 94.832C107.671 96.976 107.959 98.52 108.535 99.464C109.127 100.392 109.879 100.856 110.791 100.856C111.703 100.856 112.447 100.392 113.023 99.464C113.615 98.52 113.911 96.976 113.911 94.832C113.911 92.688 113.615 91.144 113.023 90.2C112.447 89.256 111.703 88.784 110.791 88.784ZM122.431 88.64V89.144C122.031 89.144 121.679 89.176 121.375 89.24C121.071 89.288 120.871 89.448 120.775 89.72C120.679 89.992 120.751 90.472 120.991 91.16L123.487 98.312L123.319 98.288L126.847 88.544L127.327 88.736L122.935 101.12C122.871 101.12 122.807 101.12 122.743 101.12C122.679 101.12 122.607 101.12 122.527 101.12L118.591 90.488C118.335 89.848 118.079 89.464 117.823 89.336C117.583 89.208 117.375 89.144 117.199 89.144V88.64C117.519 88.688 117.847 88.728 118.183 88.76C118.535 88.776 118.911 88.784 119.311 88.784C119.807 88.784 120.327 88.768 120.871 88.736C121.431 88.704 121.951 88.672 122.431 88.64ZM135.607 88.64V89.12C135.303 89.152 135.015 89.288 134.743 89.528C134.487 89.752 134.255 90.176 134.047 90.8L130.567 101.12C130.503 101.12 130.439 101.12 130.375 101.12C130.311 101.12 130.239 101.12 130.159 101.12L126.295 91.304L126.847 88.544C126.943 88.544 127.031 88.544 127.111 88.544C127.207 88.544 127.303 88.544 127.399 88.544L131.143 98.456L130.951 98.6L133.327 91.376C133.503 90.832 133.567 90.408 133.519 90.104C133.487 89.784 133.327 89.552 133.039 89.408C132.767 89.248 132.343 89.152 131.767 89.12V88.64C132.055 88.656 132.303 88.672 132.511 88.688C132.719 88.688 132.919 88.696 133.111 88.712C133.319 88.712 133.543 88.712 133.783 88.712C134.151 88.712 134.479 88.704 134.767 88.688C135.071 88.672 135.351 88.656 135.607 88.64ZM145.267 84.656V88.664H148.819V89.144H145.267V98.432C145.267 99.184 145.403 99.712 145.675 100.016C145.947 100.32 146.323 100.472 146.803 100.472C147.283 100.472 147.699 100.28 148.051 99.896C148.403 99.496 148.707 98.832 148.963 97.904L149.443 98.024C149.283 98.952 148.963 99.736 148.483 100.376C148.019 101.016 147.299 101.336 146.323 101.336C145.779 101.336 145.331 101.264 144.979 101.12C144.627 100.992 144.315 100.8 144.043 100.544C143.691 100.176 143.443 99.736 143.299 99.224C143.171 98.712 143.107 98.032 143.107 97.184V89.144H140.803V88.664H143.107V84.992C143.507 84.976 143.891 84.944 144.259 84.896C144.627 84.848 144.963 84.768 145.267 84.656ZM155.767 88.304C156.791 88.304 157.711 88.528 158.527 88.976C159.343 89.424 159.991 90.128 160.471 91.088C160.967 92.048 161.215 93.296 161.215 94.832C161.215 96.368 160.967 97.616 160.471 98.576C159.991 99.52 159.343 100.216 158.527 100.664C157.711 101.112 156.791 101.336 155.767 101.336C154.759 101.336 153.839 101.112 153.007 100.664C152.191 100.216 151.535 99.52 151.039 98.576C150.559 97.616 150.319 96.368 150.319 94.832C150.319 93.296 150.559 92.048 151.039 91.088C151.535 90.128 152.191 89.424 153.007 88.976C153.839 88.528 154.759 88.304 155.767 88.304ZM155.767 88.784C154.855 88.784 154.103 89.256 153.511 90.2C152.935 91.144 152.647 92.688 152.647 94.832C152.647 96.976 152.935 98.52 153.511 99.464C154.103 100.392 154.855 100.856 155.767 100.856C156.679 100.856 157.423 100.392 157.999 99.464C158.591 98.52 158.887 96.976 158.887 94.832C158.887 92.688 158.591 91.144 157.999 90.2C157.423 89.256 156.679 88.784 155.767 88.784ZM175.444 84.008V84.488C174.9 84.504 174.484 84.568 174.196 84.68C173.924 84.776 173.74 84.968 173.644 85.256C173.548 85.528 173.5 85.96 173.5 86.552V98.456C173.5 99.032 173.548 99.464 173.644 99.752C173.74 100.04 173.924 100.232 174.196 100.328C174.484 100.408 174.9 100.448 175.444 100.448H177.196C177.948 100.448 178.556 100.368 179.02 100.208C179.5 100.048 179.876 99.8 180.148 99.464C180.436 99.112 180.652 98.648 180.796 98.072C180.94 97.496 181.052 96.792 181.132 95.96H181.684C181.636 96.456 181.612 97.112 181.612 97.928C181.612 98.232 181.62 98.672 181.636 99.248C181.668 99.808 181.716 100.392 181.78 101C180.964 100.968 180.044 100.952 179.02 100.952C177.996 100.936 177.084 100.928 176.284 100.928C175.932 100.928 175.476 100.928 174.916 100.928C174.372 100.928 173.78 100.936 173.14 100.952C172.5 100.952 171.852 100.96 171.196 100.976C170.54 100.976 169.916 100.984 169.324 101V100.52C169.868 100.488 170.276 100.424 170.548 100.328C170.836 100.232 171.028 100.04 171.124 99.752C171.22 99.464 171.268 99.032 171.268 98.456V86.552C171.268 85.96 171.22 85.528 171.124 85.256C171.028 84.968 170.836 84.776 170.548 84.68C170.276 84.568 169.868 84.504 169.324 84.488V84.008C169.66 84.024 170.1 84.04 170.644 84.056C171.188 84.072 171.772 84.08 172.396 84.08C172.956 84.08 173.508 84.072 174.052 84.056C174.612 84.04 175.076 84.024 175.444 84.008ZM188.954 88.304C190.362 88.304 191.458 88.736 192.242 89.6C193.042 90.448 193.442 91.776 193.442 93.584H184.97L184.946 93.128H191.138C191.17 92.344 191.106 91.624 190.946 90.968C190.786 90.296 190.53 89.76 190.178 89.36C189.842 88.96 189.402 88.76 188.858 88.76C188.122 88.76 187.466 89.128 186.89 89.864C186.33 90.6 185.994 91.768 185.882 93.368L185.954 93.464C185.922 93.704 185.898 93.968 185.882 94.256C185.866 94.544 185.858 94.832 185.858 95.12C185.858 96.208 186.034 97.144 186.386 97.928C186.738 98.712 187.194 99.312 187.754 99.728C188.33 100.128 188.922 100.328 189.53 100.328C190.01 100.328 190.466 100.256 190.898 100.112C191.33 99.952 191.73 99.696 192.098 99.344C192.466 98.992 192.786 98.52 193.058 97.928L193.538 98.12C193.362 98.648 193.074 99.16 192.674 99.656C192.274 100.152 191.77 100.56 191.162 100.88C190.554 101.184 189.85 101.336 189.05 101.336C187.898 101.336 186.906 101.072 186.074 100.544C185.258 100.016 184.626 99.288 184.178 98.36C183.746 97.416 183.53 96.336 183.53 95.12C183.53 93.712 183.754 92.504 184.202 91.496C184.65 90.472 185.282 89.688 186.098 89.144C186.914 88.584 187.866 88.304 188.954 88.304ZM198.67 101.168C198.014 101.168 197.446 101.048 196.966 100.808C196.486 100.552 196.118 100.2 195.862 99.752C195.622 99.304 195.502 98.784 195.502 98.192C195.502 97.488 195.662 96.912 195.982 96.464C196.318 96.016 196.742 95.656 197.254 95.384C197.766 95.112 198.302 94.888 198.862 94.712C199.438 94.52 199.982 94.344 200.494 94.184C201.006 94.008 201.422 93.808 201.742 93.584C202.078 93.36 202.246 93.064 202.246 92.696V91.208C202.246 90.536 202.142 90.024 201.934 89.672C201.742 89.32 201.478 89.088 201.142 88.976C200.806 88.848 200.43 88.784 200.014 88.784C199.614 88.784 199.182 88.84 198.718 88.952C198.27 89.064 197.91 89.296 197.638 89.648C197.942 89.712 198.206 89.872 198.43 90.128C198.654 90.384 198.766 90.712 198.766 91.112C198.766 91.512 198.638 91.832 198.382 92.072C198.126 92.296 197.798 92.408 197.398 92.408C196.934 92.408 196.59 92.264 196.366 91.976C196.158 91.672 196.054 91.336 196.054 90.968C196.054 90.552 196.158 90.216 196.366 89.96C196.574 89.704 196.838 89.464 197.158 89.24C197.526 88.984 197.998 88.768 198.574 88.592C199.166 88.4 199.83 88.304 200.566 88.304C201.222 88.304 201.782 88.384 202.246 88.544C202.71 88.688 203.094 88.904 203.398 89.192C203.814 89.576 204.086 90.048 204.214 90.608C204.342 91.152 204.406 91.808 204.406 92.576V99.248C204.406 99.648 204.462 99.936 204.574 100.112C204.702 100.288 204.894 100.376 205.15 100.376C205.326 100.376 205.494 100.336 205.654 100.256C205.814 100.176 206.006 100.048 206.23 99.872L206.494 100.28C206.158 100.536 205.838 100.752 205.534 100.928C205.23 101.088 204.822 101.168 204.31 101.168C203.846 101.168 203.462 101.088 203.158 100.928C202.854 100.768 202.622 100.536 202.462 100.232C202.318 99.912 202.246 99.512 202.246 99.032C201.814 99.752 201.294 100.288 200.686 100.64C200.094 100.992 199.422 101.168 198.67 101.168ZM199.534 100.208C200.062 100.208 200.55 100.056 200.998 99.752C201.462 99.448 201.878 98.992 202.246 98.384V93.68C202.054 93.952 201.774 94.184 201.406 94.376C201.038 94.552 200.638 94.736 200.206 94.928C199.774 95.104 199.358 95.32 198.958 95.576C198.574 95.816 198.254 96.136 197.998 96.536C197.742 96.936 197.614 97.456 197.614 98.096C197.614 98.736 197.782 99.248 198.118 99.632C198.47 100.016 198.942 100.208 199.534 100.208ZM214.68 88.304C215.112 88.304 215.488 88.392 215.808 88.568C216.144 88.744 216.4 88.976 216.576 89.264C216.768 89.536 216.864 89.848 216.864 90.2C216.864 90.6 216.736 90.952 216.48 91.256C216.24 91.56 215.912 91.712 215.496 91.712C215.16 91.712 214.864 91.608 214.608 91.4C214.352 91.176 214.224 90.864 214.224 90.464C214.224 90.16 214.304 89.904 214.464 89.696C214.64 89.472 214.832 89.296 215.04 89.168C214.928 89.008 214.76 88.928 214.536 88.928C214.04 88.928 213.584 89.08 213.168 89.384C212.752 89.672 212.4 90.048 212.112 90.512C211.824 90.976 211.6 91.472 211.44 92C211.28 92.512 211.2 92.992 211.2 93.44V98.528C211.2 99.312 211.424 99.84 211.872 100.112C212.336 100.368 212.96 100.496 213.744 100.496V101C213.376 100.984 212.856 100.968 212.184 100.952C211.512 100.92 210.8 100.904 210.048 100.904C209.504 100.904 208.96 100.92 208.416 100.952C207.888 100.968 207.488 100.984 207.216 101V100.496C207.872 100.496 208.336 100.376 208.608 100.136C208.896 99.896 209.04 99.44 209.04 98.768V91.256C209.04 90.536 208.912 90.008 208.656 89.672C208.4 89.32 207.92 89.144 207.216 89.144V88.64C207.728 88.688 208.224 88.712 208.704 88.712C209.168 88.712 209.608 88.688 210.024 88.64C210.456 88.576 210.848 88.488 211.2 88.376V91.376C211.376 90.912 211.624 90.448 211.944 89.984C212.28 89.504 212.68 89.104 213.144 88.784C213.608 88.464 214.12 88.304 214.68 88.304ZM225.967 88.304C226.575 88.304 227.079 88.384 227.479 88.544C227.895 88.704 228.239 88.928 228.511 89.216C228.815 89.536 229.031 89.936 229.159 90.416C229.287 90.896 229.351 91.544 229.351 92.36V98.768C229.351 99.44 229.487 99.896 229.759 100.136C230.047 100.376 230.519 100.496 231.175 100.496V101C230.903 100.984 230.487 100.968 229.927 100.952C229.367 100.92 228.823 100.904 228.295 100.904C227.767 100.904 227.247 100.92 226.735 100.952C226.239 100.968 225.863 100.984 225.607 101V100.496C226.183 100.496 226.591 100.376 226.831 100.136C227.071 99.896 227.191 99.44 227.191 98.768V91.832C227.191 91.336 227.151 90.88 227.071 90.464C226.991 90.048 226.807 89.712 226.519 89.456C226.247 89.2 225.823 89.072 225.247 89.072C224.575 89.072 223.983 89.264 223.471 89.648C222.975 90.032 222.583 90.56 222.295 91.232C222.023 91.888 221.887 92.624 221.887 93.44V98.768C221.887 99.44 222.007 99.896 222.247 100.136C222.487 100.376 222.895 100.496 223.471 100.496V101C223.215 100.984 222.831 100.968 222.319 100.952C221.823 100.92 221.311 100.904 220.783 100.904C220.255 100.904 219.711 100.92 219.151 100.952C218.591 100.968 218.175 100.984 217.903 101V100.496C218.559 100.496 219.023 100.376 219.295 100.136C219.583 99.896 219.727 99.44 219.727 98.768V91.256C219.727 90.536 219.599 90.008 219.343 89.672C219.087 89.32 218.607 89.144 217.903 89.144V88.64C218.415 88.688 218.911 88.712 219.391 88.712C219.855 88.712 220.295 88.688 220.711 88.64C221.143 88.576 221.535 88.488 221.887 88.376V91.208C222.303 90.12 222.879 89.368 223.615 88.952C224.367 88.52 225.151 88.304 225.967 88.304Z" fill="black"/>
<path d="M273 26L255 38L261.545 42.36V54.36L273 62L284.455 54.36V42.36L287.727 40.18V54H291V38L273 26ZM284.16 38L273 45.44L261.84 38L273 30.56L284.16 38ZM281.182 52L273 57.44L264.818 52V44.54L273 50L281.182 44.54V52Z" fill="#D0398B"/>
</svg>
