<svg width="318" height="202" viewBox="0 0 318 202" fill="none" xmlns="http://www.w3.org/2000/svg">
<rect x="247.5" y="18.5" width="51" height="51" rx="6.5" fill="#FFC5D0" stroke="black"/>
<rect width="318" height="202" rx="27" fill="white"/>
<rect x="247.5" y="18.5" width="51" height="51" rx="6.5" fill="#FFC5D0" stroke="black"/>
<path d="M83.7335 84.008V84.488C83.1895 84.504 82.7735 84.568 82.4855 84.68C82.2135 84.776 82.0295 84.968 81.9335 85.256C81.8375 85.528 81.7895 85.96 81.7895 86.552V98.456C81.7895 99.032 81.8375 99.464 81.9335 99.752C82.0295 100.04 82.2135 100.232 82.4855 100.328C82.7735 100.408 83.1895 100.448 83.7335 100.448H85.4855C86.2375 100.448 86.8455 100.368 87.3095 100.208C87.7895 100.048 88.1655 99.8 88.4375 99.464C88.7255 99.112 88.9415 98.648 89.0855 98.072C89.2295 97.496 89.3415 96.792 89.4215 95.96H89.9735C89.9255 96.456 89.9015 97.112 89.9015 97.928C89.9015 98.232 89.9095 98.672 89.9255 99.248C89.9575 99.808 90.0055 100.392 90.0695 101C89.2535 100.968 88.3335 100.952 87.3095 100.952C86.2855 100.936 85.3735 100.928 84.5735 100.928C84.2215 100.928 83.7655 100.928 83.2055 100.928C82.6615 100.928 82.0695 100.936 81.4295 100.952C80.7895 100.952 80.1415 100.96 79.4855 100.976C78.8295 100.976 78.2055 100.984 77.6135 101V100.52C78.1575 100.488 78.5655 100.424 78.8375 100.328C79.1255 100.232 79.3175 100.04 79.4135 99.752C79.5095 99.464 79.5575 99.032 79.5575 98.456V86.552C79.5575 85.96 79.5095 85.528 79.4135 85.256C79.3175 84.968 79.1255 84.776 78.8375 84.68C78.5655 84.568 78.1575 84.504 77.6135 84.488V84.008C77.9495 84.024 78.3895 84.04 78.9335 84.056C79.4775 84.072 80.0615 84.08 80.6855 84.08C81.2455 84.08 81.7975 84.072 82.3415 84.056C82.9015 84.04 83.3655 84.024 83.7335 84.008ZM94.1468 82.64C94.5628 82.64 94.9228 82.792 95.2268 83.096C95.5308 83.4 95.6828 83.76 95.6828 84.176C95.6828 84.592 95.5308 84.952 95.2268 85.256C94.9228 85.56 94.5628 85.712 94.1468 85.712C93.7308 85.712 93.3708 85.56 93.0668 85.256C92.7628 84.952 92.6108 84.592 92.6108 84.176C92.6108 83.76 92.7628 83.4 93.0668 83.096C93.3708 82.792 93.7308 82.64 94.1468 82.64ZM95.3948 88.376V98.768C95.3948 99.44 95.5308 99.896 95.8028 100.136C96.0908 100.376 96.5628 100.496 97.2188 100.496V101C96.9468 100.984 96.5308 100.968 95.9708 100.952C95.4268 100.92 94.8748 100.904 94.3148 100.904C93.7708 100.904 93.2188 100.92 92.6588 100.952C92.0988 100.968 91.6828 100.984 91.4108 101V100.496C92.0668 100.496 92.5308 100.376 92.8028 100.136C93.0908 99.896 93.2348 99.44 93.2348 98.768V91.256C93.2348 90.536 93.1068 90.008 92.8508 89.672C92.5948 89.32 92.1148 89.144 91.4108 89.144V88.64C91.9228 88.688 92.4188 88.712 92.8988 88.712C93.3628 88.712 93.8028 88.688 94.2188 88.64C94.6508 88.576 95.0428 88.488 95.3948 88.376ZM104.37 82.232C104.818 82.232 105.21 82.296 105.546 82.424C105.898 82.536 106.202 82.688 106.458 82.88C106.698 83.072 106.882 83.296 107.01 83.552C107.138 83.808 107.202 84.08 107.202 84.368C107.202 84.736 107.082 85.04 106.842 85.28C106.602 85.52 106.298 85.64 105.93 85.64C105.578 85.64 105.266 85.528 104.994 85.304C104.738 85.064 104.61 84.744 104.61 84.344C104.61 84.008 104.698 83.736 104.874 83.528C105.066 83.32 105.314 83.184 105.618 83.12C105.57 82.976 105.442 82.856 105.234 82.76C105.042 82.648 104.778 82.592 104.442 82.592C104.074 82.592 103.754 82.672 103.482 82.832C103.226 82.992 103.026 83.208 102.882 83.48C102.69 83.816 102.57 84.32 102.522 84.992C102.474 85.648 102.45 86.664 102.45 88.04V88.664H105.018V89.144H102.45V98.528C102.45 99.312 102.674 99.84 103.122 100.112C103.586 100.368 104.21 100.496 104.994 100.496V101C104.626 100.984 104.106 100.968 103.434 100.952C102.762 100.92 102.05 100.904 101.298 100.904C100.754 100.904 100.21 100.92 99.6661 100.952C99.1381 100.968 98.7381 100.984 98.4661 101V100.496C99.1221 100.496 99.5861 100.376 99.8581 100.136C100.146 99.896 100.29 99.44 100.29 98.768V89.144H98.3701V88.664H100.29C100.29 87.72 100.33 86.928 100.41 86.288C100.49 85.648 100.618 85.104 100.794 84.656C100.97 84.192 101.21 83.784 101.514 83.432C101.834 83.064 102.242 82.776 102.738 82.568C103.234 82.344 103.778 82.232 104.37 82.232ZM111.844 88.304C113.252 88.304 114.348 88.736 115.132 89.6C115.932 90.448 116.332 91.776 116.332 93.584H107.86L107.836 93.128H114.028C114.06 92.344 113.996 91.624 113.836 90.968C113.676 90.296 113.42 89.76 113.068 89.36C112.732 88.96 112.292 88.76 111.748 88.76C111.012 88.76 110.356 89.128 109.78 89.864C109.22 90.6 108.884 91.768 108.772 93.368L108.844 93.464C108.812 93.704 108.788 93.968 108.772 94.256C108.756 94.544 108.748 94.832 108.748 95.12C108.748 96.208 108.924 97.144 109.276 97.928C109.628 98.712 110.084 99.312 110.644 99.728C111.22 100.128 111.812 100.328 112.42 100.328C112.9 100.328 113.356 100.256 113.788 100.112C114.22 99.952 114.62 99.696 114.988 99.344C115.356 98.992 115.676 98.52 115.948 97.928L116.428 98.12C116.252 98.648 115.964 99.16 115.564 99.656C115.164 100.152 114.66 100.56 114.052 100.88C113.444 101.184 112.74 101.336 111.94 101.336C110.788 101.336 109.796 101.072 108.964 100.544C108.148 100.016 107.516 99.288 107.068 98.36C106.636 97.416 106.42 96.336 106.42 95.12C106.42 93.712 106.644 92.504 107.092 91.496C107.54 90.472 108.172 89.688 108.988 89.144C109.804 88.584 110.756 88.304 111.844 88.304ZM122.449 88.304C123.089 88.304 123.633 88.408 124.081 88.616C124.529 88.824 124.857 89.016 125.065 89.192C125.593 89.624 125.913 89.336 126.025 88.328H126.577C126.545 88.776 126.521 89.312 126.505 89.936C126.489 90.544 126.481 91.368 126.481 92.408H125.929C125.833 91.816 125.665 91.24 125.425 90.68C125.201 90.12 124.865 89.664 124.417 89.312C123.969 88.944 123.385 88.76 122.665 88.76C122.105 88.76 121.633 88.92 121.249 89.24C120.881 89.544 120.697 90 120.697 90.608C120.697 91.088 120.841 91.504 121.129 91.856C121.417 92.192 121.793 92.512 122.257 92.816C122.721 93.104 123.225 93.424 123.769 93.776C124.377 94.16 124.929 94.552 125.425 94.952C125.921 95.352 126.313 95.792 126.601 96.272C126.905 96.752 127.057 97.32 127.057 97.976C127.057 98.712 126.865 99.328 126.481 99.824C126.097 100.32 125.593 100.696 124.969 100.952C124.361 101.208 123.689 101.336 122.953 101.336C122.601 101.336 122.265 101.304 121.945 101.24C121.641 101.192 121.345 101.112 121.057 101C120.897 100.92 120.729 100.824 120.553 100.712C120.393 100.6 120.233 100.48 120.073 100.352C119.913 100.224 119.769 100.232 119.641 100.376C119.513 100.504 119.417 100.768 119.353 101.168H118.801C118.833 100.656 118.857 100.032 118.873 99.296C118.889 98.56 118.897 97.584 118.897 96.368H119.449C119.561 97.264 119.721 98.048 119.929 98.72C120.137 99.392 120.465 99.92 120.913 100.304C121.361 100.672 121.985 100.856 122.785 100.856C123.105 100.856 123.425 100.784 123.745 100.64C124.081 100.496 124.361 100.256 124.585 99.92C124.809 99.584 124.921 99.136 124.921 98.576C124.921 97.872 124.665 97.296 124.153 96.848C123.641 96.4 122.993 95.928 122.209 95.432C121.633 95.064 121.089 94.696 120.577 94.328C120.081 93.96 119.673 93.544 119.353 93.08C119.049 92.616 118.897 92.056 118.897 91.4C118.897 90.68 119.057 90.096 119.377 89.648C119.713 89.184 120.153 88.848 120.697 88.64C121.241 88.416 121.825 88.304 122.449 88.304ZM132.751 84.656V88.664H136.303V89.144H132.751V98.432C132.751 99.184 132.887 99.712 133.159 100.016C133.431 100.32 133.807 100.472 134.287 100.472C134.767 100.472 135.183 100.28 135.535 99.896C135.887 99.496 136.191 98.832 136.447 97.904L136.927 98.024C136.767 98.952 136.447 99.736 135.967 100.376C135.503 101.016 134.783 101.336 133.807 101.336C133.263 101.336 132.815 101.264 132.463 101.12C132.111 100.992 131.799 100.8 131.527 100.544C131.175 100.176 130.927 99.736 130.783 99.224C130.655 98.712 130.591 98.032 130.591 97.184V89.144H128.287V88.664H130.591V84.992C130.991 84.976 131.375 84.944 131.743 84.896C132.111 84.848 132.447 84.768 132.751 84.656ZM148.532 88.64V89.12C148.228 89.152 147.948 89.288 147.692 89.528C147.436 89.768 147.196 90.192 146.972 90.8L143.036 101.12H142.628L138.212 90.488C137.908 89.864 137.604 89.488 137.3 89.36C137.012 89.216 136.772 89.144 136.58 89.144V88.64C136.932 88.688 137.3 88.728 137.684 88.76C138.068 88.776 138.484 88.784 138.932 88.784C139.428 88.784 139.948 88.768 140.492 88.736C141.052 88.704 141.572 88.672 142.052 88.64V89.144C141.652 89.144 141.292 89.176 140.972 89.24C140.668 89.288 140.476 89.456 140.396 89.744C140.316 90.016 140.412 90.488 140.684 91.16L143.636 98.48L143.492 98.528L146.228 91.376C146.436 90.848 146.516 90.432 146.468 90.128C146.436 89.808 146.276 89.568 145.988 89.408C145.7 89.248 145.268 89.152 144.692 89.12V88.64C144.98 88.656 145.228 88.672 145.436 88.688C145.644 88.688 145.844 88.696 146.036 88.712C146.244 88.712 146.468 88.712 146.708 88.712C147.076 88.712 147.404 88.704 147.692 88.688C147.996 88.672 148.276 88.656 148.532 88.64ZM143.036 101.12L142.22 103.208C142.06 103.608 141.892 103.944 141.716 104.216C141.556 104.488 141.38 104.712 141.188 104.888C140.932 105.128 140.628 105.288 140.276 105.368C139.924 105.464 139.604 105.512 139.316 105.512C139.012 105.512 138.732 105.456 138.476 105.344C138.236 105.232 138.044 105.064 137.9 104.84C137.756 104.632 137.684 104.376 137.684 104.072C137.684 103.688 137.796 103.376 138.02 103.136C138.244 102.912 138.556 102.8 138.956 102.8C139.292 102.8 139.58 102.896 139.82 103.088C140.06 103.28 140.18 103.56 140.18 103.928C140.18 104.2 140.116 104.424 139.988 104.6C139.86 104.776 139.708 104.912 139.532 105.008C139.564 105.024 139.588 105.032 139.604 105.032C139.636 105.032 139.66 105.032 139.676 105.032C140.108 105.032 140.492 104.88 140.828 104.576C141.164 104.288 141.46 103.816 141.716 103.16L142.58 100.928L143.036 101.12ZM152.672 82.184V98.768C152.672 99.44 152.808 99.896 153.08 100.136C153.368 100.376 153.84 100.496 154.496 100.496V101C154.224 100.984 153.808 100.968 153.248 100.952C152.704 100.92 152.152 100.904 151.592 100.904C151.048 100.904 150.496 100.92 149.936 100.952C149.376 100.968 148.96 100.984 148.688 101V100.496C149.344 100.496 149.808 100.376 150.08 100.136C150.368 99.896 150.512 99.44 150.512 98.768V85.064C150.512 84.344 150.384 83.816 150.128 83.48C149.872 83.128 149.392 82.952 148.688 82.952V82.448C149.2 82.496 149.696 82.52 150.176 82.52C150.64 82.52 151.08 82.496 151.496 82.448C151.928 82.384 152.32 82.296 152.672 82.184ZM161.321 88.304C162.729 88.304 163.825 88.736 164.609 89.6C165.409 90.448 165.809 91.776 165.809 93.584H157.337L157.313 93.128H163.505C163.537 92.344 163.473 91.624 163.313 90.968C163.153 90.296 162.897 89.76 162.545 89.36C162.209 88.96 161.769 88.76 161.225 88.76C160.489 88.76 159.833 89.128 159.257 89.864C158.697 90.6 158.361 91.768 158.249 93.368L158.321 93.464C158.289 93.704 158.265 93.968 158.249 94.256C158.233 94.544 158.225 94.832 158.225 95.12C158.225 96.208 158.401 97.144 158.753 97.928C159.105 98.712 159.561 99.312 160.121 99.728C160.697 100.128 161.289 100.328 161.897 100.328C162.377 100.328 162.833 100.256 163.265 100.112C163.697 99.952 164.097 99.696 164.465 99.344C164.833 98.992 165.153 98.52 165.425 97.928L165.905 98.12C165.729 98.648 165.441 99.16 165.041 99.656C164.641 100.152 164.137 100.56 163.529 100.88C162.921 101.184 162.217 101.336 161.417 101.336C160.265 101.336 159.273 101.072 158.441 100.544C157.625 100.016 156.993 99.288 156.545 98.36C156.113 97.416 155.897 96.336 155.897 95.12C155.897 93.712 156.121 92.504 156.569 91.496C157.017 90.472 157.649 89.688 158.465 89.144C159.281 88.584 160.233 88.304 161.321 88.304ZM177.014 101.168C176.358 101.168 175.79 101.048 175.31 100.808C174.83 100.552 174.462 100.2 174.206 99.752C173.966 99.304 173.846 98.784 173.846 98.192C173.846 97.488 174.006 96.912 174.326 96.464C174.662 96.016 175.086 95.656 175.598 95.384C176.11 95.112 176.646 94.888 177.206 94.712C177.782 94.52 178.326 94.344 178.838 94.184C179.35 94.008 179.766 93.808 180.086 93.584C180.422 93.36 180.59 93.064 180.59 92.696V91.208C180.59 90.536 180.486 90.024 180.278 89.672C180.086 89.32 179.822 89.088 179.486 88.976C179.15 88.848 178.774 88.784 178.358 88.784C177.958 88.784 177.526 88.84 177.062 88.952C176.614 89.064 176.254 89.296 175.982 89.648C176.286 89.712 176.55 89.872 176.774 90.128C176.998 90.384 177.11 90.712 177.11 91.112C177.11 91.512 176.982 91.832 176.726 92.072C176.47 92.296 176.142 92.408 175.742 92.408C175.278 92.408 174.934 92.264 174.71 91.976C174.502 91.672 174.398 91.336 174.398 90.968C174.398 90.552 174.502 90.216 174.71 89.96C174.918 89.704 175.182 89.464 175.502 89.24C175.87 88.984 176.342 88.768 176.918 88.592C177.51 88.4 178.174 88.304 178.91 88.304C179.566 88.304 180.126 88.384 180.59 88.544C181.054 88.688 181.438 88.904 181.742 89.192C182.158 89.576 182.43 90.048 182.558 90.608C182.686 91.152 182.75 91.808 182.75 92.576V99.248C182.75 99.648 182.806 99.936 182.918 100.112C183.046 100.288 183.238 100.376 183.494 100.376C183.67 100.376 183.838 100.336 183.998 100.256C184.158 100.176 184.35 100.048 184.574 99.872L184.838 100.28C184.502 100.536 184.182 100.752 183.878 100.928C183.574 101.088 183.166 101.168 182.654 101.168C182.19 101.168 181.806 101.088 181.502 100.928C181.198 100.768 180.966 100.536 180.806 100.232C180.662 99.912 180.59 99.512 180.59 99.032C180.158 99.752 179.638 100.288 179.03 100.64C178.438 100.992 177.766 101.168 177.014 101.168ZM177.878 100.208C178.406 100.208 178.894 100.056 179.342 99.752C179.806 99.448 180.222 98.992 180.59 98.384V93.68C180.398 93.952 180.118 94.184 179.75 94.376C179.382 94.552 178.982 94.736 178.55 94.928C178.118 95.104 177.702 95.32 177.302 95.576C176.918 95.816 176.598 96.136 176.342 96.536C176.086 96.936 175.958 97.456 175.958 98.096C175.958 98.736 176.126 99.248 176.462 99.632C176.814 100.016 177.286 100.208 177.878 100.208ZM196.479 82.184V98.384C196.479 99.104 196.607 99.64 196.863 99.992C197.135 100.328 197.615 100.496 198.303 100.496V101C197.807 100.952 197.311 100.928 196.815 100.928C196.351 100.928 195.903 100.952 195.471 101C195.055 101.048 194.671 101.136 194.319 101.264V85.064C194.319 84.344 194.191 83.816 193.935 83.48C193.679 83.128 193.199 82.952 192.495 82.952V82.448C193.007 82.496 193.503 82.52 193.983 82.52C194.447 82.52 194.887 82.496 195.303 82.448C195.735 82.384 196.127 82.296 196.479 82.184ZM191.439 88.304C192.143 88.304 192.799 88.472 193.407 88.808C194.031 89.144 194.447 89.72 194.655 90.536L194.343 90.776C194.119 90.104 193.767 89.616 193.287 89.312C192.823 89.008 192.271 88.856 191.631 88.856C190.687 88.856 189.895 89.344 189.255 90.32C188.631 91.296 188.327 92.8 188.343 94.832C188.343 96.128 188.463 97.208 188.703 98.072C188.959 98.92 189.327 99.56 189.807 99.992C190.303 100.408 190.903 100.616 191.607 100.616C192.279 100.616 192.887 100.328 193.431 99.752C193.975 99.176 194.303 98.328 194.415 97.208L194.703 97.544C194.575 98.76 194.183 99.696 193.527 100.352C192.887 101.008 192.015 101.336 190.911 101.336C189.919 101.336 189.047 101.096 188.295 100.616C187.559 100.136 186.991 99.416 186.591 98.456C186.207 97.496 186.015 96.288 186.015 94.832C186.015 93.376 186.263 92.168 186.759 91.208C187.271 90.232 187.935 89.504 188.751 89.024C189.583 88.544 190.479 88.304 191.439 88.304ZM210.473 88.64V89.12C210.169 89.152 209.889 89.288 209.633 89.528C209.377 89.768 209.137 90.192 208.913 90.8L204.977 101.12C204.913 101.12 204.849 101.12 204.785 101.12C204.721 101.12 204.649 101.12 204.569 101.12L200.153 90.488C199.897 89.864 199.641 89.488 199.385 89.36C199.145 89.216 198.937 89.144 198.761 89.144V88.64C199.081 88.656 199.409 88.68 199.745 88.712C200.097 88.728 200.473 88.736 200.873 88.736C201.369 88.736 201.889 88.728 202.433 88.712C202.993 88.696 203.513 88.672 203.993 88.64V89.144C203.593 89.144 203.233 89.176 202.913 89.24C202.609 89.288 202.409 89.44 202.313 89.696C202.233 89.952 202.313 90.392 202.553 91.016L205.553 98.432L205.409 98.552L208.145 91.376C208.353 90.848 208.433 90.432 208.385 90.128C208.353 89.808 208.193 89.568 207.905 89.408C207.633 89.248 207.209 89.152 206.633 89.12V88.64C206.921 88.656 207.169 88.672 207.377 88.688C207.585 88.688 207.785 88.696 207.977 88.712C208.185 88.712 208.409 88.712 208.649 88.712C209.017 88.712 209.345 88.704 209.633 88.688C209.937 88.672 210.217 88.656 210.473 88.64ZM213.983 82.64C214.399 82.64 214.759 82.792 215.063 83.096C215.367 83.4 215.519 83.76 215.519 84.176C215.519 84.592 215.367 84.952 215.063 85.256C214.759 85.56 214.399 85.712 213.983 85.712C213.567 85.712 213.207 85.56 212.903 85.256C212.599 84.952 212.447 84.592 212.447 84.176C212.447 83.76 212.599 83.4 212.903 83.096C213.207 82.792 213.567 82.64 213.983 82.64ZM215.231 88.376V98.768C215.231 99.44 215.367 99.896 215.639 100.136C215.927 100.376 216.399 100.496 217.055 100.496V101C216.783 100.984 216.367 100.968 215.807 100.952C215.263 100.92 214.711 100.904 214.151 100.904C213.607 100.904 213.055 100.92 212.495 100.952C211.935 100.968 211.519 100.984 211.247 101V100.496C211.903 100.496 212.367 100.376 212.639 100.136C212.927 99.896 213.071 99.44 213.071 98.768V91.256C213.071 90.536 212.943 90.008 212.687 89.672C212.431 89.32 211.951 89.144 211.247 89.144V88.64C211.759 88.688 212.255 88.712 212.735 88.712C213.199 88.712 213.639 88.688 214.055 88.64C214.487 88.576 214.879 88.488 215.231 88.376ZM224.278 88.304C224.79 88.304 225.286 88.368 225.766 88.496C226.246 88.624 226.678 88.816 227.062 89.072C227.43 89.312 227.71 89.592 227.902 89.912C228.094 90.216 228.19 90.552 228.19 90.92C228.19 91.352 228.07 91.688 227.83 91.928C227.59 92.152 227.286 92.264 226.918 92.264C226.566 92.264 226.254 92.16 225.982 91.952C225.726 91.744 225.598 91.448 225.598 91.064C225.598 90.696 225.694 90.4 225.886 90.176C226.094 89.952 226.334 89.808 226.606 89.744C226.446 89.456 226.158 89.216 225.742 89.024C225.342 88.832 224.91 88.736 224.446 88.736C224.046 88.736 223.646 88.832 223.246 89.024C222.846 89.216 222.478 89.536 222.142 89.984C221.806 90.416 221.534 91.016 221.326 91.784C221.118 92.536 221.014 93.48 221.014 94.616C221.014 96.024 221.174 97.144 221.494 97.976C221.814 98.808 222.23 99.408 222.742 99.776C223.27 100.128 223.846 100.304 224.47 100.304C224.886 100.304 225.31 100.224 225.742 100.064C226.174 99.904 226.582 99.648 226.966 99.296C227.35 98.928 227.678 98.44 227.95 97.832L228.406 98C228.246 98.512 227.982 99.032 227.614 99.56C227.246 100.072 226.766 100.496 226.174 100.832C225.582 101.168 224.854 101.336 223.99 101.336C222.998 101.336 222.102 101.08 221.302 100.568C220.502 100.056 219.862 99.328 219.382 98.384C218.918 97.424 218.686 96.288 218.686 94.976C218.686 93.664 218.918 92.512 219.382 91.52C219.862 90.512 220.526 89.728 221.374 89.168C222.222 88.592 223.19 88.304 224.278 88.304ZM235.782 88.304C237.19 88.304 238.286 88.736 239.07 89.6C239.87 90.448 240.27 91.776 240.27 93.584H231.798L231.774 93.128H237.966C237.998 92.344 237.934 91.624 237.774 90.968C237.614 90.296 237.358 89.76 237.006 89.36C236.67 88.96 236.23 88.76 235.686 88.76C234.95 88.76 234.294 89.128 233.718 89.864C233.158 90.6 232.822 91.768 232.71 93.368L232.782 93.464C232.75 93.704 232.726 93.968 232.71 94.256C232.694 94.544 232.686 94.832 232.686 95.12C232.686 96.208 232.862 97.144 233.214 97.928C233.566 98.712 234.022 99.312 234.582 99.728C235.158 100.128 235.75 100.328 236.358 100.328C236.838 100.328 237.294 100.256 237.726 100.112C238.158 99.952 238.558 99.696 238.926 99.344C239.294 98.992 239.614 98.52 239.886 97.928L240.366 98.12C240.19 98.648 239.902 99.16 239.502 99.656C239.102 100.152 238.598 100.56 237.99 100.88C237.382 101.184 236.678 101.336 235.878 101.336C234.726 101.336 233.734 101.072 232.902 100.544C232.086 100.016 231.454 99.288 231.006 98.36C230.574 97.416 230.358 96.336 230.358 95.12C230.358 93.712 230.582 92.504 231.03 91.496C231.478 90.472 232.11 89.688 232.926 89.144C233.742 88.584 234.694 88.304 235.782 88.304Z" fill="black"/>
<path d="M285.015 41.093L279.852 33.7205L282.31 32L287.472 39.3725L285.015 41.093Z" fill="#D0398B"/>
<path d="M282.189 44.9026L279.609 41.2141L267.321 49.8181L269.901 53.5036L267.445 55.2256L260.562 45.3946L263.02 43.6741L265.6 47.3611L277.888 38.7571L275.307 35.0701L277.764 33.3496L284.646 43.1791L282.189 44.9011V44.9026Z" fill="#D0398B"/>
<path d="M285.752 36.9138L288.209 35.1933L286.488 32.7363L284.031 34.4568L285.752 36.9138Z" fill="#D0398B"/>
<path d="M265.356 54.8588L260.193 47.4863L257.736 49.2068L262.898 56.5793L265.356 54.8588V54.8588Z" fill="#D0398B"/>
<path d="M261.177 54.122L258.72 55.8425L257 53.3855L259.457 51.665L261.177 54.122Z" fill="#D0398B"/>
</svg>
