<svg width="318" height="202" viewBox="0 0 318 202" fill="none" xmlns="http://www.w3.org/2000/svg">
<rect x="247.5" y="18.5" width="51" height="51" rx="6.5" fill="#FFC5D0" stroke="black"/>
<rect width="318" height="202" rx="27" fill="white"/>
<rect x="247.5" y="18.5" width="51" height="51" rx="6.5" fill="#FFC5D0" stroke="black"/>
<path d="M77.1304 84.008V84.488C76.5864 84.504 76.1704 84.568 75.8824 84.68C75.6104 84.776 75.4264 84.968 75.3304 85.256C75.2344 85.528 75.1864 85.96 75.1864 86.552V98.456C75.1864 99.032 75.2344 99.464 75.3304 99.752C75.4264 100.04 75.6104 100.232 75.8824 100.328C76.1704 100.424 76.5864 100.488 77.1304 100.52V101C76.7624 100.968 76.2984 100.952 75.7384 100.952C75.1944 100.936 74.6424 100.928 74.0824 100.928C73.4584 100.928 72.8744 100.936 72.3304 100.952C71.7864 100.952 71.3464 100.968 71.0104 101V100.52C71.5544 100.488 71.9624 100.424 72.2344 100.328C72.5224 100.232 72.7144 100.04 72.8104 99.752C72.9064 99.464 72.9544 99.032 72.9544 98.456V85.256L73.0504 85.328L67.1704 101.12H66.7864L60.7384 85.544V98.216C60.7384 98.792 60.7864 99.248 60.8824 99.584C60.9944 99.904 61.2024 100.136 61.5064 100.28C61.8264 100.408 62.2984 100.488 62.9224 100.52V101C62.6344 100.968 62.2584 100.952 61.7944 100.952C61.3304 100.936 60.8904 100.928 60.4744 100.928C60.0744 100.928 59.6664 100.936 59.2504 100.952C58.8504 100.952 58.5144 100.968 58.2424 101V100.52C58.7864 100.488 59.1944 100.408 59.4664 100.28C59.7544 100.136 59.9464 99.904 60.0424 99.584C60.1384 99.248 60.1864 98.792 60.1864 98.216V86.552C60.1864 85.96 60.1384 85.528 60.0424 85.256C59.9464 84.968 59.7544 84.776 59.4664 84.68C59.1944 84.568 58.7864 84.504 58.2424 84.488V84.008C58.5144 84.024 58.8504 84.04 59.2504 84.056C59.6664 84.072 60.0744 84.08 60.4744 84.08C60.8264 84.08 61.1864 84.072 61.5544 84.056C61.9384 84.04 62.2584 84.024 62.5144 84.008L67.9624 98.36L67.5544 98.552L72.9544 84.08C73.1464 84.08 73.3304 84.08 73.5064 84.08C73.6984 84.08 73.8904 84.08 74.0824 84.08C74.6424 84.08 75.1944 84.072 75.7384 84.056C76.2984 84.04 76.7624 84.024 77.1304 84.008ZM84.2468 88.304C85.6548 88.304 86.7508 88.736 87.5348 89.6C88.3348 90.448 88.7348 91.776 88.7348 93.584H80.2628L80.2388 93.128H86.4308C86.4628 92.344 86.3988 91.624 86.2388 90.968C86.0788 90.296 85.8228 89.76 85.4708 89.36C85.1348 88.96 84.6948 88.76 84.1508 88.76C83.4148 88.76 82.7588 89.128 82.1828 89.864C81.6228 90.6 81.2868 91.768 81.1748 93.368L81.2467 93.464C81.2148 93.704 81.1908 93.968 81.1748 94.256C81.1588 94.544 81.1508 94.832 81.1508 95.12C81.1508 96.208 81.3268 97.144 81.6788 97.928C82.0308 98.712 82.4868 99.312 83.0468 99.728C83.6228 100.128 84.2148 100.328 84.8228 100.328C85.3028 100.328 85.7588 100.256 86.1908 100.112C86.6228 99.952 87.0228 99.696 87.3908 99.344C87.7588 98.992 88.0788 98.52 88.3508 97.928L88.8308 98.12C88.6548 98.648 88.3668 99.16 87.9668 99.656C87.5668 100.152 87.0628 100.56 86.4548 100.88C85.8468 101.184 85.1428 101.336 84.3428 101.336C83.1908 101.336 82.1988 101.072 81.3668 100.544C80.5508 100.016 79.9188 99.288 79.4708 98.36C79.0388 97.416 78.8228 96.336 78.8228 95.12C78.8228 93.712 79.0468 92.504 79.4948 91.496C79.9428 90.472 80.5748 89.688 81.3908 89.144C82.2068 88.584 83.1588 88.304 84.2468 88.304ZM98.6194 88.304C99.2274 88.304 99.7314 88.384 100.131 88.544C100.547 88.704 100.891 88.928 101.163 89.216C101.467 89.536 101.683 89.936 101.811 90.416C101.939 90.896 102.003 91.544 102.003 92.36V98.768C102.003 99.44 102.139 99.896 102.411 100.136C102.699 100.376 103.171 100.496 103.827 100.496V101C103.555 100.984 103.139 100.968 102.579 100.952C102.019 100.92 101.475 100.904 100.947 100.904C100.419 100.904 99.8994 100.92 99.3874 100.952C98.8914 100.968 98.5154 100.984 98.2594 101V100.496C98.8354 100.496 99.2434 100.376 99.4834 100.136C99.7234 99.896 99.8434 99.44 99.8434 98.768V91.832C99.8434 91.336 99.8034 90.88 99.7234 90.464C99.6434 90.048 99.4594 89.712 99.1714 89.456C98.8994 89.2 98.4754 89.072 97.8994 89.072C97.2274 89.072 96.6354 89.264 96.1234 89.648C95.6274 90.032 95.2354 90.56 94.9474 91.232C94.6754 91.888 94.5394 92.624 94.5394 93.44V98.768C94.5394 99.44 94.6594 99.896 94.8994 100.136C95.1394 100.376 95.5474 100.496 96.1234 100.496V101C95.8674 100.984 95.4834 100.968 94.9714 100.952C94.4754 100.92 93.9634 100.904 93.4354 100.904C92.9074 100.904 92.3634 100.92 91.8034 100.952C91.2434 100.968 90.8274 100.984 90.5554 101V100.496C91.2114 100.496 91.6754 100.376 91.9474 100.136C92.2354 99.896 92.3794 99.44 92.3794 98.768V91.256C92.3794 90.536 92.2514 90.008 91.9954 89.672C91.7394 89.32 91.2594 89.144 90.5554 89.144V88.64C91.0674 88.688 91.5634 88.712 92.0434 88.712C92.5074 88.712 92.9474 88.688 93.3634 88.64C93.7954 88.576 94.1874 88.488 94.5394 88.376V91.208C94.9554 90.12 95.5314 89.368 96.2674 88.952C97.0194 88.52 97.8034 88.304 98.6194 88.304ZM108.74 84.656V88.664H112.292V89.144H108.74V98.432C108.74 99.184 108.876 99.712 109.148 100.016C109.42 100.32 109.796 100.472 110.276 100.472C110.756 100.472 111.172 100.28 111.524 99.896C111.876 99.496 112.18 98.832 112.436 97.904L112.916 98.024C112.756 98.952 112.436 99.736 111.956 100.376C111.492 101.016 110.772 101.336 109.796 101.336C109.252 101.336 108.804 101.264 108.452 101.12C108.1 100.992 107.788 100.8 107.516 100.544C107.164 100.176 106.916 99.736 106.772 99.224C106.644 98.712 106.58 98.032 106.58 97.184V89.144H104.276V88.664H106.58V84.992C106.98 84.976 107.364 84.944 107.732 84.896C108.1 84.848 108.436 84.768 108.74 84.656ZM116.768 101.168C116.112 101.168 115.544 101.048 115.064 100.808C114.584 100.552 114.216 100.2 113.96 99.752C113.72 99.304 113.6 98.784 113.6 98.192C113.6 97.488 113.76 96.912 114.08 96.464C114.416 96.016 114.84 95.656 115.352 95.384C115.864 95.112 116.4 94.888 116.96 94.712C117.536 94.52 118.08 94.344 118.592 94.184C119.104 94.008 119.52 93.808 119.84 93.584C120.176 93.36 120.344 93.064 120.344 92.696V91.208C120.344 90.536 120.24 90.024 120.032 89.672C119.84 89.32 119.576 89.088 119.24 88.976C118.904 88.848 118.528 88.784 118.112 88.784C117.712 88.784 117.28 88.84 116.816 88.952C116.368 89.064 116.008 89.296 115.736 89.648C116.04 89.712 116.304 89.872 116.528 90.128C116.752 90.384 116.864 90.712 116.864 91.112C116.864 91.512 116.736 91.832 116.48 92.072C116.224 92.296 115.896 92.408 115.496 92.408C115.032 92.408 114.688 92.264 114.464 91.976C114.256 91.672 114.152 91.336 114.152 90.968C114.152 90.552 114.256 90.216 114.464 89.96C114.672 89.704 114.936 89.464 115.256 89.24C115.624 88.984 116.096 88.768 116.672 88.592C117.264 88.4 117.928 88.304 118.664 88.304C119.32 88.304 119.88 88.384 120.344 88.544C120.808 88.688 121.192 88.904 121.496 89.192C121.912 89.576 122.184 90.048 122.312 90.608C122.44 91.152 122.504 91.808 122.504 92.576V99.248C122.504 99.648 122.56 99.936 122.672 100.112C122.8 100.288 122.992 100.376 123.248 100.376C123.424 100.376 123.592 100.336 123.752 100.256C123.912 100.176 124.104 100.048 124.328 99.872L124.592 100.28C124.256 100.536 123.936 100.752 123.632 100.928C123.328 101.088 122.92 101.168 122.408 101.168C121.944 101.168 121.56 101.088 121.256 100.928C120.952 100.768 120.72 100.536 120.56 100.232C120.416 99.912 120.344 99.512 120.344 99.032C119.912 99.752 119.392 100.288 118.784 100.64C118.192 100.992 117.52 101.168 116.768 101.168ZM117.632 100.208C118.16 100.208 118.648 100.056 119.096 99.752C119.56 99.448 119.976 98.992 120.344 98.384V93.68C120.152 93.952 119.872 94.184 119.504 94.376C119.136 94.552 118.736 94.736 118.304 94.928C117.872 95.104 117.456 95.32 117.056 95.576C116.672 95.816 116.352 96.136 116.096 96.536C115.84 96.936 115.712 97.456 115.712 98.096C115.712 98.736 115.88 99.248 116.216 99.632C116.568 100.016 117.04 100.208 117.632 100.208ZM129.129 82.184V98.768C129.129 99.44 129.265 99.896 129.537 100.136C129.825 100.376 130.297 100.496 130.953 100.496V101C130.681 100.984 130.265 100.968 129.705 100.952C129.161 100.92 128.609 100.904 128.049 100.904C127.505 100.904 126.953 100.92 126.393 100.952C125.833 100.968 125.417 100.984 125.145 101V100.496C125.801 100.496 126.265 100.376 126.537 100.136C126.825 99.896 126.969 99.44 126.969 98.768V85.064C126.969 84.344 126.841 83.816 126.585 83.48C126.329 83.128 125.849 82.952 125.145 82.952V82.448C125.657 82.496 126.153 82.52 126.633 82.52C127.097 82.52 127.537 82.496 127.953 82.448C128.385 82.384 128.777 82.296 129.129 82.184ZM148.501 101V100.52C149.045 100.488 149.453 100.424 149.725 100.328C150.013 100.232 150.205 100.04 150.301 99.752C150.397 99.464 150.445 99.032 150.445 98.456V86.552C150.445 85.96 150.397 85.528 150.301 85.256C150.205 84.968 150.013 84.776 149.725 84.68C149.453 84.568 149.045 84.504 148.501 84.488V84.008C148.869 84.024 149.333 84.04 149.893 84.056C150.453 84.072 151.005 84.08 151.549 84.08C152.173 84.08 152.757 84.072 153.301 84.056C153.845 84.04 154.285 84.024 154.621 84.008V84.488C154.077 84.504 153.661 84.568 153.373 84.68C153.101 84.776 152.917 84.968 152.821 85.256C152.725 85.528 152.677 85.96 152.677 86.552V98.456C152.677 99.032 152.725 99.464 152.821 99.752C152.917 100.04 153.101 100.232 153.373 100.328C153.661 100.424 154.077 100.488 154.621 100.52V101C154.285 100.968 153.845 100.952 153.301 100.952C152.757 100.936 152.173 100.928 151.549 100.928C151.005 100.928 150.453 100.936 149.893 100.952C149.333 100.952 148.869 100.968 148.501 101ZM138.469 101V100.52C139.013 100.488 139.421 100.424 139.693 100.328C139.981 100.232 140.173 100.04 140.269 99.752C140.365 99.464 140.413 99.032 140.413 98.456V86.552C140.413 85.96 140.365 85.528 140.269 85.256C140.173 84.968 139.981 84.776 139.693 84.68C139.421 84.568 139.013 84.504 138.469 84.488V84.008C138.805 84.024 139.245 84.04 139.789 84.056C140.333 84.072 140.917 84.08 141.541 84.08C142.101 84.08 142.653 84.072 143.197 84.056C143.757 84.04 144.221 84.024 144.589 84.008V84.488C144.045 84.504 143.629 84.568 143.341 84.68C143.069 84.776 142.885 84.968 142.789 85.256C142.693 85.528 142.645 85.96 142.645 86.552V98.456C142.645 99.032 142.693 99.464 142.789 99.752C142.885 100.04 143.069 100.232 143.341 100.328C143.629 100.424 144.045 100.488 144.589 100.52V101C144.221 100.968 143.757 100.952 143.197 100.952C142.653 100.936 142.101 100.928 141.541 100.928C140.917 100.928 140.333 100.936 139.789 100.952C139.245 100.952 138.805 100.968 138.469 101ZM141.805 92.696V92.216H151.285V92.696H141.805ZM161.731 88.304C163.139 88.304 164.235 88.736 165.019 89.6C165.819 90.448 166.219 91.776 166.219 93.584H157.747L157.723 93.128H163.915C163.947 92.344 163.883 91.624 163.723 90.968C163.563 90.296 163.307 89.76 162.955 89.36C162.619 88.96 162.179 88.76 161.635 88.76C160.899 88.76 160.243 89.128 159.667 89.864C159.107 90.6 158.771 91.768 158.659 93.368L158.731 93.464C158.699 93.704 158.675 93.968 158.659 94.256C158.643 94.544 158.635 94.832 158.635 95.12C158.635 96.208 158.811 97.144 159.163 97.928C159.515 98.712 159.971 99.312 160.531 99.728C161.107 100.128 161.699 100.328 162.307 100.328C162.787 100.328 163.243 100.256 163.675 100.112C164.107 99.952 164.507 99.696 164.875 99.344C165.243 98.992 165.563 98.52 165.835 97.928L166.315 98.12C166.139 98.648 165.851 99.16 165.451 99.656C165.051 100.152 164.547 100.56 163.939 100.88C163.331 101.184 162.627 101.336 161.827 101.336C160.675 101.336 159.683 101.072 158.851 100.544C158.035 100.016 157.403 99.288 156.955 98.36C156.523 97.416 156.307 96.336 156.307 95.12C156.307 93.712 156.531 92.504 156.979 91.496C157.427 90.472 158.059 89.688 158.875 89.144C159.691 88.584 160.643 88.304 161.731 88.304ZM171.448 101.168C170.792 101.168 170.224 101.048 169.744 100.808C169.264 100.552 168.896 100.2 168.64 99.752C168.4 99.304 168.28 98.784 168.28 98.192C168.28 97.488 168.44 96.912 168.76 96.464C169.096 96.016 169.52 95.656 170.032 95.384C170.544 95.112 171.08 94.888 171.64 94.712C172.216 94.52 172.76 94.344 173.272 94.184C173.784 94.008 174.2 93.808 174.52 93.584C174.856 93.36 175.024 93.064 175.024 92.696V91.208C175.024 90.536 174.92 90.024 174.712 89.672C174.52 89.32 174.256 89.088 173.92 88.976C173.584 88.848 173.208 88.784 172.792 88.784C172.392 88.784 171.96 88.84 171.496 88.952C171.048 89.064 170.688 89.296 170.416 89.648C170.72 89.712 170.984 89.872 171.208 90.128C171.432 90.384 171.544 90.712 171.544 91.112C171.544 91.512 171.416 91.832 171.16 92.072C170.904 92.296 170.576 92.408 170.176 92.408C169.712 92.408 169.368 92.264 169.144 91.976C168.936 91.672 168.832 91.336 168.832 90.968C168.832 90.552 168.936 90.216 169.144 89.96C169.352 89.704 169.616 89.464 169.936 89.24C170.304 88.984 170.776 88.768 171.352 88.592C171.944 88.4 172.608 88.304 173.344 88.304C174 88.304 174.56 88.384 175.024 88.544C175.488 88.688 175.872 88.904 176.176 89.192C176.592 89.576 176.864 90.048 176.992 90.608C177.12 91.152 177.184 91.808 177.184 92.576V99.248C177.184 99.648 177.24 99.936 177.352 100.112C177.48 100.288 177.672 100.376 177.928 100.376C178.104 100.376 178.272 100.336 178.432 100.256C178.592 100.176 178.784 100.048 179.008 99.872L179.272 100.28C178.936 100.536 178.616 100.752 178.312 100.928C178.008 101.088 177.6 101.168 177.088 101.168C176.624 101.168 176.24 101.088 175.936 100.928C175.632 100.768 175.4 100.536 175.24 100.232C175.096 99.912 175.024 99.512 175.024 99.032C174.592 99.752 174.072 100.288 173.464 100.64C172.872 100.992 172.2 101.168 171.448 101.168ZM172.312 100.208C172.84 100.208 173.328 100.056 173.776 99.752C174.24 99.448 174.656 98.992 175.024 98.384V93.68C174.832 93.952 174.552 94.184 174.184 94.376C173.816 94.552 173.416 94.736 172.984 94.928C172.552 95.104 172.136 95.32 171.736 95.576C171.352 95.816 171.032 96.136 170.776 96.536C170.52 96.936 170.392 97.456 170.392 98.096C170.392 98.736 170.56 99.248 170.896 99.632C171.248 100.016 171.72 100.208 172.312 100.208ZM183.809 82.184V98.768C183.809 99.44 183.945 99.896 184.217 100.136C184.505 100.376 184.977 100.496 185.633 100.496V101C185.361 100.984 184.945 100.968 184.385 100.952C183.841 100.92 183.289 100.904 182.729 100.904C182.185 100.904 181.633 100.92 181.073 100.952C180.513 100.968 180.097 100.984 179.825 101V100.496C180.481 100.496 180.945 100.376 181.217 100.136C181.505 99.896 181.649 99.44 181.649 98.768V85.064C181.649 84.344 181.521 83.816 181.265 83.48C181.009 83.128 180.529 82.952 179.825 82.952V82.448C180.337 82.496 180.833 82.52 181.313 82.52C181.777 82.52 182.217 82.496 182.633 82.448C183.065 82.384 183.457 82.296 183.809 82.184ZM190.724 84.656V88.664H194.276V89.144H190.724V98.432C190.724 99.184 190.86 99.712 191.132 100.016C191.404 100.32 191.78 100.472 192.26 100.472C192.74 100.472 193.156 100.28 193.508 99.896C193.86 99.496 194.164 98.832 194.42 97.904L194.9 98.024C194.74 98.952 194.42 99.736 193.94 100.376C193.476 101.016 192.756 101.336 191.78 101.336C191.236 101.336 190.788 101.264 190.436 101.12C190.084 100.992 189.772 100.8 189.5 100.544C189.148 100.176 188.9 99.736 188.756 99.224C188.628 98.712 188.564 98.032 188.564 97.184V89.144H186.26V88.664H188.564V84.992C188.964 84.976 189.348 84.944 189.716 84.896C190.084 84.848 190.42 84.768 190.724 84.656ZM199.112 82.208V91.184C199.528 90.096 200.104 89.344 200.84 88.928C201.592 88.512 202.376 88.304 203.192 88.304C203.8 88.304 204.304 88.384 204.704 88.544C205.12 88.704 205.464 88.928 205.736 89.216C206.04 89.536 206.256 89.936 206.384 90.416C206.512 90.896 206.576 91.544 206.576 92.36V98.768C206.576 99.44 206.712 99.896 206.984 100.136C207.272 100.376 207.744 100.496 208.4 100.496V101C208.128 100.984 207.712 100.968 207.152 100.952C206.592 100.92 206.048 100.904 205.52 100.904C204.992 100.904 204.472 100.92 203.96 100.952C203.464 100.968 203.088 100.984 202.832 101V100.496C203.408 100.496 203.816 100.376 204.056 100.136C204.296 99.896 204.416 99.44 204.416 98.768V91.832C204.416 91.336 204.376 90.88 204.296 90.464C204.216 90.048 204.032 89.712 203.744 89.456C203.472 89.2 203.048 89.072 202.472 89.072C201.816 89.072 201.232 89.256 200.72 89.624C200.224 89.992 199.832 90.504 199.544 91.16C199.256 91.816 199.112 92.568 199.112 93.416V98.768C199.112 99.44 199.232 99.896 199.472 100.136C199.712 100.376 200.12 100.496 200.696 100.496V101C200.44 100.984 200.056 100.968 199.544 100.952C199.048 100.92 198.536 100.904 198.008 100.904C197.48 100.904 196.936 100.92 196.376 100.952C195.816 100.968 195.4 100.984 195.128 101V100.496C195.784 100.496 196.248 100.376 196.52 100.136C196.808 99.896 196.952 99.44 196.952 98.768V85.088C196.952 84.368 196.824 83.84 196.568 83.504C196.312 83.152 195.832 82.976 195.128 82.976V82.472C195.64 82.52 196.136 82.544 196.616 82.544C197.08 82.544 197.52 82.52 197.936 82.472C198.368 82.408 198.76 82.32 199.112 82.208ZM228.356 84.008C228.292 84.616 228.244 85.208 228.212 85.784C228.196 86.344 228.188 86.776 228.188 87.08C228.188 87.464 228.196 87.824 228.212 88.16C228.228 88.496 228.244 88.792 228.26 89.048H227.708C227.596 87.928 227.444 87.048 227.252 86.408C227.06 85.752 226.724 85.28 226.244 84.992C225.764 84.704 225.02 84.56 224.012 84.56H222.716V98.216C222.716 98.856 222.772 99.336 222.884 99.656C223.012 99.976 223.252 100.192 223.604 100.304C223.956 100.416 224.468 100.488 225.14 100.52V101C224.724 100.968 224.196 100.952 223.556 100.952C222.916 100.936 222.268 100.928 221.612 100.928C220.892 100.928 220.212 100.936 219.572 100.952C218.948 100.952 218.444 100.968 218.06 101V100.52C218.732 100.488 219.244 100.416 219.596 100.304C219.948 100.192 220.18 99.976 220.292 99.656C220.42 99.336 220.484 98.856 220.484 98.216V84.56H219.188C218.196 84.56 217.452 84.704 216.956 84.992C216.476 85.28 216.14 85.752 215.948 86.408C215.756 87.048 215.604 87.928 215.492 89.048H214.94C214.972 88.792 214.988 88.496 214.988 88.16C215.004 87.824 215.012 87.464 215.012 87.08C215.012 86.776 214.996 86.344 214.964 85.784C214.948 85.208 214.908 84.616 214.844 84.008C215.516 84.024 216.244 84.04 217.028 84.056C217.828 84.072 218.628 84.08 219.428 84.08C220.228 84.08 220.956 84.08 221.612 84.08C222.268 84.08 222.988 84.08 223.772 84.08C224.572 84.08 225.372 84.072 226.172 84.056C226.972 84.04 227.7 84.024 228.356 84.008ZM232.487 82.64C232.903 82.64 233.263 82.792 233.567 83.096C233.871 83.4 234.023 83.76 234.023 84.176C234.023 84.592 233.871 84.952 233.567 85.256C233.263 85.56 232.903 85.712 232.487 85.712C232.071 85.712 231.711 85.56 231.407 85.256C231.103 84.952 230.951 84.592 230.951 84.176C230.951 83.76 231.103 83.4 231.407 83.096C231.711 82.792 232.071 82.64 232.487 82.64ZM233.735 88.376V98.768C233.735 99.44 233.871 99.896 234.143 100.136C234.431 100.376 234.903 100.496 235.559 100.496V101C235.287 100.984 234.871 100.968 234.311 100.952C233.767 100.92 233.215 100.904 232.655 100.904C232.111 100.904 231.559 100.92 230.999 100.952C230.439 100.968 230.023 100.984 229.751 101V100.496C230.407 100.496 230.871 100.376 231.143 100.136C231.431 99.896 231.575 99.44 231.575 98.768V91.256C231.575 90.536 231.447 90.008 231.191 89.672C230.935 89.32 230.455 89.144 229.751 89.144V88.64C230.263 88.688 230.759 88.712 231.239 88.712C231.703 88.712 232.143 88.688 232.559 88.64C232.991 88.576 233.383 88.488 233.735 88.376ZM240.598 88.376V103.112C240.598 103.8 240.798 104.256 241.198 104.48C241.614 104.72 242.182 104.84 242.902 104.84V105.344C242.55 105.328 242.062 105.304 241.438 105.272C240.814 105.256 240.15 105.248 239.446 105.248C238.95 105.248 238.454 105.256 237.958 105.272C237.478 105.304 237.11 105.328 236.854 105.344V104.84C237.43 104.84 237.838 104.736 238.078 104.528C238.318 104.32 238.438 103.928 238.438 103.352V91.256C238.438 90.536 238.31 90.008 238.054 89.672C237.798 89.32 237.318 89.144 236.614 89.144V88.64C237.126 88.688 237.622 88.712 238.102 88.712C238.566 88.712 239.006 88.688 239.422 88.64C239.854 88.576 240.246 88.488 240.598 88.376ZM244.438 88.304C245.286 88.304 246.046 88.536 246.718 89C247.39 89.448 247.918 90.112 248.302 90.992C248.702 91.872 248.902 92.96 248.902 94.256C248.902 95.12 248.798 95.976 248.59 96.824C248.382 97.656 248.054 98.416 247.606 99.104C247.174 99.776 246.606 100.32 245.902 100.736C245.214 101.136 244.382 101.336 243.406 101.336C242.654 101.336 241.998 101.16 241.438 100.808C240.894 100.456 240.526 100.032 240.334 99.536L240.574 99.2C240.798 99.648 241.118 100.024 241.534 100.328C241.966 100.632 242.502 100.784 243.142 100.784C244.038 100.784 244.734 100.504 245.23 99.944C245.726 99.384 246.07 98.64 246.262 97.712C246.47 96.768 246.574 95.728 246.574 94.592C246.574 93.312 246.47 92.264 246.262 91.448C246.054 90.632 245.742 90.024 245.326 89.624C244.91 89.224 244.398 89.024 243.79 89.024C243.006 89.024 242.294 89.352 241.654 90.008C241.014 90.648 240.606 91.624 240.43 92.936L240.142 92.6C240.318 91.24 240.798 90.184 241.582 89.432C242.382 88.68 243.334 88.304 244.438 88.304ZM255.023 88.304C255.663 88.304 256.207 88.408 256.655 88.616C257.103 88.824 257.431 89.016 257.639 89.192C258.167 89.624 258.487 89.336 258.599 88.328H259.151C259.119 88.776 259.095 89.312 259.079 89.936C259.063 90.544 259.055 91.368 259.055 92.408H258.503C258.407 91.816 258.239 91.24 257.999 90.68C257.775 90.12 257.439 89.664 256.991 89.312C256.543 88.944 255.959 88.76 255.239 88.76C254.679 88.76 254.207 88.92 253.823 89.24C253.455 89.544 253.271 90 253.271 90.608C253.271 91.088 253.415 91.504 253.703 91.856C253.991 92.192 254.367 92.512 254.831 92.816C255.295 93.104 255.799 93.424 256.343 93.776C256.951 94.16 257.503 94.552 257.999 94.952C258.495 95.352 258.887 95.792 259.175 96.272C259.479 96.752 259.631 97.32 259.631 97.976C259.631 98.712 259.439 99.328 259.055 99.824C258.671 100.32 258.167 100.696 257.543 100.952C256.935 101.208 256.263 101.336 255.527 101.336C255.175 101.336 254.839 101.304 254.519 101.24C254.215 101.192 253.919 101.112 253.631 101C253.471 100.92 253.303 100.824 253.127 100.712C252.967 100.6 252.807 100.48 252.647 100.352C252.487 100.224 252.343 100.232 252.215 100.376C252.087 100.504 251.991 100.768 251.927 101.168H251.375C251.407 100.656 251.431 100.032 251.447 99.296C251.463 98.56 251.471 97.584 251.471 96.368H252.023C252.135 97.264 252.295 98.048 252.503 98.72C252.711 99.392 253.039 99.92 253.487 100.304C253.935 100.672 254.559 100.856 255.359 100.856C255.679 100.856 255.999 100.784 256.319 100.64C256.655 100.496 256.935 100.256 257.159 99.92C257.383 99.584 257.495 99.136 257.495 98.576C257.495 97.872 257.239 97.296 256.727 96.848C256.215 96.4 255.567 95.928 254.783 95.432C254.207 95.064 253.663 94.696 253.151 94.328C252.655 93.96 252.247 93.544 251.927 93.08C251.623 92.616 251.471 92.056 251.471 91.4C251.471 90.68 251.631 90.096 251.951 89.648C252.287 89.184 252.727 88.848 253.271 88.64C253.815 88.416 254.399 88.304 255.023 88.304Z" fill="black"/>
<path d="M287.155 37.637C287.409 36.7481 287.463 35.8144 287.316 34.9019C287.169 33.9894 286.823 33.1205 286.302 32.3565C285.782 31.5926 285.1 30.9523 284.305 30.4809C283.51 30.0096 282.621 29.7187 281.701 29.6288C281.332 28.5697 280.643 27.6516 279.729 27.0014C278.815 26.3513 277.722 26.0013 276.6 26C275.267 26.0045 273.984 26.505 273 27.404C272.016 26.505 270.733 26.0045 269.4 26C267.058 26 265.062 27.4958 264.315 29.627C263.393 29.7146 262.502 30.004 261.705 30.4745C260.908 30.945 260.224 31.5852 259.702 32.3497C259.18 33.1141 258.833 33.9841 258.685 34.8978C258.536 35.8116 258.591 36.7468 258.845 37.637C257.689 38.2518 256.722 39.1679 256.045 40.2882C255.368 41.4085 255.007 42.6911 255 44C255 45.935 255.77 47.7548 257.11 49.0976C256.905 49.7796 256.8 50.4879 256.8 51.2C256.8 54.7226 259.342 57.662 262.751 58.2812C263.251 59.3873 264.059 60.3261 265.079 60.9855C266.098 61.6449 267.286 61.9971 268.5 62C270.262 62 271.855 61.2674 273 60.0938C273.584 60.6965 274.284 61.1758 275.057 61.5033C275.83 61.8307 276.661 61.9996 277.5 62C278.712 61.9978 279.898 61.647 280.916 60.9895C281.934 60.3321 282.741 59.3957 283.242 58.292C284.246 58.1149 285.202 57.7269 286.045 57.1534C286.888 56.5799 287.6 55.8341 288.134 54.9652C288.668 54.0962 289.011 53.124 289.142 52.1125C289.272 51.1011 289.186 50.0735 288.89 49.0976C289.56 48.4281 290.09 47.6334 290.452 46.7587C290.814 45.884 291 44.9466 291 44C290.993 42.6911 290.632 41.4085 289.955 40.2882C289.278 39.1679 288.311 38.2518 287.155 37.637ZM268.5 58.4C267.22 58.4 266.106 57.4928 265.854 56.2436L265.472 54.8H264C262.015 54.8 260.4 53.1854 260.4 51.2C260.4 50.5664 260.553 49.9724 260.855 49.4342L261.676 47.9654L260.265 47.0474C259.755 46.7187 259.336 46.2677 259.045 45.7354C258.754 45.2032 258.601 44.6065 258.6 44C258.6 42.2414 259.901 40.7168 261.628 40.4504L264.675 39.9824L262.769 37.5596C262.429 37.122 262.232 36.5906 262.205 36.0375C262.177 35.4843 262.32 34.936 262.614 34.4667C262.908 33.9974 263.34 33.6298 263.849 33.4135C264.359 33.1973 264.923 33.1428 265.465 33.2576L267.6 33.5726V31.4C267.6 30.9226 267.79 30.4648 268.127 30.1272C268.465 29.7896 268.923 29.6 269.4 29.6C269.877 29.6 270.335 29.7896 270.673 30.1272C271.01 30.4648 271.2 30.9226 271.2 31.4V55.7C271.2 57.1886 269.989 58.4 268.5 58.4ZM285.735 47.0456L284.324 47.9636L285.145 49.4324C285.447 49.9724 285.6 50.5664 285.6 51.2C285.6 53.1854 283.985 54.8 281.91 54.8H280.438L280.146 56.2436C280.02 56.8525 279.688 57.3994 279.206 57.7922C278.724 58.185 278.122 58.3996 277.5 58.4C276.011 58.4 274.8 57.1886 274.8 55.7V31.4C274.8 30.4064 275.606 29.6 276.6 29.6C277.594 29.6 278.4 30.4064 278.4 31.49V33.6626L280.535 33.2576C281.077 33.1428 281.641 33.1973 282.151 33.4135C282.66 33.6298 283.092 33.9974 283.386 34.4667C283.68 34.936 283.823 35.4843 283.795 36.0375C283.768 36.5906 283.571 37.122 283.231 37.5596L281.325 39.9842L284.372 40.4522C285.216 40.5887 285.983 41.0204 286.538 41.6702C287.092 42.3201 287.398 43.1457 287.4 44C287.4 45.2294 286.777 46.367 285.735 47.0456Z" fill="#D0398B"/>
</svg>
