<svg width="318" height="202" viewBox="0 0 318 202" fill="none" xmlns="http://www.w3.org/2000/svg">
<rect x="247.5" y="18.5" width="51" height="51" rx="6.5" fill="#FFC5D0" stroke="black"/>
<rect width="318" height="202" rx="27" fill="white"/>
<rect x="247.5" y="18.5" width="51" height="51" rx="6.5" fill="#FFC5D0" stroke="black"/>
<path d="M109.914 83.744C110.714 83.744 111.322 83.84 111.738 84.032C112.154 84.208 112.522 84.408 112.842 84.632C113.034 84.744 113.186 84.832 113.298 84.896C113.426 84.944 113.546 84.968 113.658 84.968C113.818 84.968 113.93 84.88 113.994 84.704C114.074 84.528 114.138 84.264 114.186 83.912H114.738C114.722 84.184 114.698 84.512 114.666 84.896C114.65 85.264 114.634 85.76 114.618 86.384C114.618 86.992 114.618 87.8 114.618 88.808H114.066C114.018 88.04 113.85 87.304 113.562 86.6C113.274 85.896 112.85 85.32 112.29 84.872C111.746 84.424 111.026 84.2 110.13 84.2C109.282 84.2 108.578 84.456 108.018 84.968C107.474 85.48 107.202 86.152 107.202 86.984C107.202 87.704 107.386 88.312 107.754 88.808C108.122 89.288 108.61 89.728 109.218 90.128C109.842 90.512 110.514 90.928 111.234 91.376C112.066 91.888 112.802 92.4 113.442 92.912C114.098 93.408 114.61 93.96 114.978 94.568C115.362 95.176 115.554 95.912 115.554 96.776C115.554 97.8 115.322 98.648 114.858 99.32C114.394 99.992 113.778 100.496 113.01 100.832C112.242 101.168 111.394 101.336 110.466 101.336C109.618 101.336 108.946 101.24 108.45 101.048C107.954 100.856 107.53 100.656 107.178 100.448C106.826 100.224 106.554 100.112 106.362 100.112C106.202 100.112 106.082 100.2 106.002 100.376C105.938 100.552 105.882 100.816 105.834 101.168H105.282C105.314 100.832 105.33 100.44 105.33 99.992C105.346 99.528 105.354 98.928 105.354 98.192C105.37 97.456 105.378 96.528 105.378 95.408H105.93C105.994 96.368 106.17 97.264 106.458 98.096C106.762 98.928 107.218 99.6 107.826 100.112C108.45 100.608 109.274 100.856 110.298 100.856C110.826 100.856 111.322 100.752 111.786 100.544C112.266 100.32 112.658 99.976 112.962 99.512C113.266 99.032 113.418 98.416 113.418 97.664C113.418 97.008 113.258 96.44 112.938 95.96C112.634 95.464 112.202 95.008 111.642 94.592C111.082 94.16 110.426 93.72 109.674 93.272C108.922 92.808 108.218 92.336 107.562 91.856C106.906 91.376 106.378 90.824 105.978 90.2C105.594 89.56 105.402 88.792 105.402 87.896C105.402 86.952 105.61 86.176 106.026 85.568C106.458 84.944 107.018 84.488 107.706 84.2C108.394 83.896 109.13 83.744 109.914 83.744ZM123.306 88.304C124.33 88.304 125.25 88.528 126.066 88.976C126.882 89.424 127.53 90.128 128.01 91.088C128.506 92.048 128.754 93.296 128.754 94.832C128.754 96.368 128.506 97.616 128.01 98.576C127.53 99.52 126.882 100.216 126.066 100.664C125.25 101.112 124.33 101.336 123.306 101.336C122.298 101.336 121.378 101.112 120.546 100.664C119.73 100.216 119.074 99.52 118.578 98.576C118.098 97.616 117.858 96.368 117.858 94.832C117.858 93.296 118.098 92.048 118.578 91.088C119.074 90.128 119.73 89.424 120.546 88.976C121.378 88.528 122.298 88.304 123.306 88.304ZM123.306 88.784C122.394 88.784 121.642 89.256 121.05 90.2C120.474 91.144 120.186 92.688 120.186 94.832C120.186 96.976 120.474 98.52 121.05 99.464C121.642 100.392 122.394 100.856 123.306 100.856C124.218 100.856 124.962 100.392 125.538 99.464C126.13 98.52 126.426 96.976 126.426 94.832C126.426 92.688 126.13 91.144 125.538 90.2C124.962 89.256 124.218 88.784 123.306 88.784ZM136.575 88.304C137.087 88.304 137.583 88.368 138.063 88.496C138.543 88.624 138.975 88.816 139.359 89.072C139.727 89.312 140.007 89.592 140.199 89.912C140.391 90.216 140.487 90.552 140.487 90.92C140.487 91.352 140.367 91.688 140.127 91.928C139.887 92.152 139.583 92.264 139.215 92.264C138.863 92.264 138.551 92.16 138.279 91.952C138.023 91.744 137.895 91.448 137.895 91.064C137.895 90.696 137.991 90.4 138.183 90.176C138.391 89.952 138.631 89.808 138.903 89.744C138.743 89.456 138.455 89.216 138.039 89.024C137.639 88.832 137.207 88.736 136.743 88.736C136.343 88.736 135.943 88.832 135.543 89.024C135.143 89.216 134.775 89.536 134.439 89.984C134.103 90.416 133.831 91.016 133.623 91.784C133.415 92.536 133.311 93.48 133.311 94.616C133.311 96.024 133.471 97.144 133.791 97.976C134.111 98.808 134.527 99.408 135.039 99.776C135.567 100.128 136.143 100.304 136.767 100.304C137.183 100.304 137.607 100.224 138.039 100.064C138.471 99.904 138.879 99.648 139.263 99.296C139.647 98.928 139.975 98.44 140.247 97.832L140.703 98C140.543 98.512 140.279 99.032 139.911 99.56C139.543 100.072 139.063 100.496 138.471 100.832C137.879 101.168 137.151 101.336 136.287 101.336C135.295 101.336 134.399 101.08 133.599 100.568C132.799 100.056 132.159 99.328 131.679 98.384C131.215 97.424 130.983 96.288 130.983 94.976C130.983 93.664 131.215 92.512 131.679 91.52C132.159 90.512 132.823 89.728 133.671 89.168C134.519 88.592 135.487 88.304 136.575 88.304ZM144.983 82.64C145.399 82.64 145.759 82.792 146.063 83.096C146.367 83.4 146.519 83.76 146.519 84.176C146.519 84.592 146.367 84.952 146.063 85.256C145.759 85.56 145.399 85.712 144.983 85.712C144.567 85.712 144.207 85.56 143.903 85.256C143.599 84.952 143.447 84.592 143.447 84.176C143.447 83.76 143.599 83.4 143.903 83.096C144.207 82.792 144.567 82.64 144.983 82.64ZM146.231 88.376V98.768C146.231 99.44 146.367 99.896 146.639 100.136C146.927 100.376 147.399 100.496 148.055 100.496V101C147.783 100.984 147.367 100.968 146.807 100.952C146.263 100.92 145.711 100.904 145.151 100.904C144.607 100.904 144.055 100.92 143.495 100.952C142.935 100.968 142.519 100.984 142.247 101V100.496C142.903 100.496 143.367 100.376 143.639 100.136C143.927 99.896 144.071 99.44 144.071 98.768V91.256C144.071 90.536 143.943 90.008 143.687 89.672C143.431 89.32 142.951 89.144 142.247 89.144V88.64C142.759 88.688 143.255 88.712 143.735 88.712C144.199 88.712 144.639 88.688 145.055 88.64C145.487 88.576 145.879 88.488 146.231 88.376ZM152.686 101.168C152.03 101.168 151.462 101.048 150.982 100.808C150.502 100.552 150.134 100.2 149.878 99.752C149.638 99.304 149.518 98.784 149.518 98.192C149.518 97.488 149.678 96.912 149.998 96.464C150.334 96.016 150.758 95.656 151.27 95.384C151.782 95.112 152.318 94.888 152.878 94.712C153.454 94.52 153.998 94.344 154.51 94.184C155.022 94.008 155.438 93.808 155.758 93.584C156.094 93.36 156.262 93.064 156.262 92.696V91.208C156.262 90.536 156.158 90.024 155.95 89.672C155.758 89.32 155.494 89.088 155.158 88.976C154.822 88.848 154.446 88.784 154.03 88.784C153.63 88.784 153.198 88.84 152.734 88.952C152.286 89.064 151.926 89.296 151.654 89.648C151.958 89.712 152.222 89.872 152.446 90.128C152.67 90.384 152.782 90.712 152.782 91.112C152.782 91.512 152.654 91.832 152.398 92.072C152.142 92.296 151.814 92.408 151.414 92.408C150.95 92.408 150.606 92.264 150.382 91.976C150.174 91.672 150.07 91.336 150.07 90.968C150.07 90.552 150.174 90.216 150.382 89.96C150.59 89.704 150.854 89.464 151.174 89.24C151.542 88.984 152.014 88.768 152.59 88.592C153.182 88.4 153.846 88.304 154.582 88.304C155.238 88.304 155.798 88.384 156.262 88.544C156.726 88.688 157.11 88.904 157.414 89.192C157.83 89.576 158.102 90.048 158.23 90.608C158.358 91.152 158.422 91.808 158.422 92.576V99.248C158.422 99.648 158.478 99.936 158.59 100.112C158.718 100.288 158.91 100.376 159.166 100.376C159.342 100.376 159.51 100.336 159.67 100.256C159.83 100.176 160.022 100.048 160.246 99.872L160.51 100.28C160.174 100.536 159.854 100.752 159.55 100.928C159.246 101.088 158.838 101.168 158.326 101.168C157.862 101.168 157.478 101.088 157.174 100.928C156.87 100.768 156.638 100.536 156.478 100.232C156.334 99.912 156.262 99.512 156.262 99.032C155.83 99.752 155.31 100.288 154.702 100.64C154.11 100.992 153.438 101.168 152.686 101.168ZM153.55 100.208C154.078 100.208 154.566 100.056 155.014 99.752C155.478 99.448 155.894 98.992 156.262 98.384V93.68C156.07 93.952 155.79 94.184 155.422 94.376C155.054 94.552 154.654 94.736 154.222 94.928C153.79 95.104 153.374 95.32 152.974 95.576C152.59 95.816 152.27 96.136 152.014 96.536C151.758 96.936 151.63 97.456 151.63 98.096C151.63 98.736 151.798 99.248 152.134 99.632C152.486 100.016 152.958 100.208 153.55 100.208ZM165.047 82.184V98.768C165.047 99.44 165.183 99.896 165.455 100.136C165.743 100.376 166.215 100.496 166.871 100.496V101C166.599 100.984 166.183 100.968 165.623 100.952C165.079 100.92 164.527 100.904 163.967 100.904C163.423 100.904 162.871 100.92 162.311 100.952C161.751 100.968 161.335 100.984 161.063 101V100.496C161.719 100.496 162.183 100.376 162.455 100.136C162.743 99.896 162.887 99.44 162.887 98.768V85.064C162.887 84.344 162.759 83.816 162.503 83.48C162.247 83.128 161.767 82.952 161.063 82.952V82.448C161.575 82.496 162.071 82.52 162.551 82.52C163.015 82.52 163.455 82.496 163.871 82.448C164.303 82.384 164.695 82.296 165.047 82.184ZM180.507 84.008V84.488C179.963 84.504 179.547 84.568 179.259 84.68C178.987 84.776 178.803 84.968 178.707 85.256C178.611 85.528 178.563 85.96 178.563 86.552V98.456C178.563 99.032 178.611 99.464 178.707 99.752C178.803 100.04 178.987 100.232 179.259 100.328C179.547 100.408 179.963 100.448 180.507 100.448H182.259C183.011 100.448 183.619 100.368 184.083 100.208C184.563 100.048 184.939 99.8 185.211 99.464C185.499 99.112 185.715 98.648 185.859 98.072C186.003 97.496 186.115 96.792 186.195 95.96H186.747C186.699 96.456 186.675 97.112 186.675 97.928C186.675 98.232 186.683 98.672 186.699 99.248C186.731 99.808 186.779 100.392 186.843 101C186.027 100.968 185.107 100.952 184.083 100.952C183.059 100.936 182.147 100.928 181.347 100.928C180.995 100.928 180.539 100.928 179.979 100.928C179.435 100.928 178.843 100.936 178.203 100.952C177.563 100.952 176.915 100.96 176.259 100.976C175.603 100.976 174.979 100.984 174.387 101V100.52C174.931 100.488 175.339 100.424 175.611 100.328C175.899 100.232 176.091 100.04 176.187 99.752C176.283 99.464 176.331 99.032 176.331 98.456V86.552C176.331 85.96 176.283 85.528 176.187 85.256C176.091 84.968 175.899 84.776 175.611 84.68C175.339 84.568 174.931 84.504 174.387 84.488V84.008C174.723 84.024 175.163 84.04 175.707 84.056C176.251 84.072 176.835 84.08 177.459 84.08C178.019 84.08 178.571 84.072 179.115 84.056C179.675 84.04 180.139 84.024 180.507 84.008ZM190.92 82.64C191.336 82.64 191.696 82.792 192 83.096C192.304 83.4 192.456 83.76 192.456 84.176C192.456 84.592 192.304 84.952 192 85.256C191.696 85.56 191.336 85.712 190.92 85.712C190.504 85.712 190.144 85.56 189.84 85.256C189.536 84.952 189.384 84.592 189.384 84.176C189.384 83.76 189.536 83.4 189.84 83.096C190.144 82.792 190.504 82.64 190.92 82.64ZM192.168 88.376V98.768C192.168 99.44 192.304 99.896 192.576 100.136C192.864 100.376 193.336 100.496 193.992 100.496V101C193.72 100.984 193.304 100.968 192.744 100.952C192.2 100.92 191.648 100.904 191.088 100.904C190.544 100.904 189.992 100.92 189.432 100.952C188.872 100.968 188.456 100.984 188.184 101V100.496C188.84 100.496 189.304 100.376 189.576 100.136C189.864 99.896 190.008 99.44 190.008 98.768V91.256C190.008 90.536 189.88 90.008 189.624 89.672C189.368 89.32 188.888 89.144 188.184 89.144V88.64C188.696 88.688 189.192 88.712 189.672 88.712C190.136 88.712 190.576 88.688 190.992 88.64C191.424 88.576 191.816 88.488 192.168 88.376ZM201.144 82.232C201.592 82.232 201.984 82.296 202.32 82.424C202.672 82.536 202.976 82.688 203.232 82.88C203.472 83.072 203.656 83.296 203.784 83.552C203.912 83.808 203.976 84.08 203.976 84.368C203.976 84.736 203.856 85.04 203.616 85.28C203.376 85.52 203.072 85.64 202.704 85.64C202.352 85.64 202.04 85.528 201.768 85.304C201.512 85.064 201.384 84.744 201.384 84.344C201.384 84.008 201.472 83.736 201.648 83.528C201.84 83.32 202.088 83.184 202.392 83.12C202.344 82.976 202.216 82.856 202.008 82.76C201.816 82.648 201.552 82.592 201.216 82.592C200.848 82.592 200.528 82.672 200.256 82.832C200 82.992 199.8 83.208 199.656 83.48C199.464 83.816 199.344 84.32 199.296 84.992C199.248 85.648 199.224 86.664 199.224 88.04V88.664H201.792V89.144H199.224V98.528C199.224 99.312 199.448 99.84 199.896 100.112C200.36 100.368 200.984 100.496 201.768 100.496V101C201.4 100.984 200.88 100.968 200.208 100.952C199.536 100.92 198.824 100.904 198.072 100.904C197.528 100.904 196.984 100.92 196.44 100.952C195.912 100.968 195.512 100.984 195.24 101V100.496C195.896 100.496 196.36 100.376 196.632 100.136C196.92 99.896 197.064 99.44 197.064 98.768V89.144H195.144V88.664H197.064C197.064 87.72 197.104 86.928 197.184 86.288C197.264 85.648 197.392 85.104 197.568 84.656C197.744 84.192 197.984 83.784 198.288 83.432C198.608 83.064 199.016 82.776 199.512 82.568C200.008 82.344 200.552 82.232 201.144 82.232ZM208.618 88.304C210.026 88.304 211.122 88.736 211.906 89.6C212.706 90.448 213.106 91.776 213.106 93.584H204.634L204.61 93.128H210.802C210.834 92.344 210.77 91.624 210.61 90.968C210.45 90.296 210.194 89.76 209.842 89.36C209.506 88.96 209.066 88.76 208.522 88.76C207.786 88.76 207.13 89.128 206.554 89.864C205.994 90.6 205.658 91.768 205.546 93.368L205.618 93.464C205.586 93.704 205.562 93.968 205.546 94.256C205.53 94.544 205.522 94.832 205.522 95.12C205.522 96.208 205.698 97.144 206.05 97.928C206.402 98.712 206.858 99.312 207.418 99.728C207.994 100.128 208.586 100.328 209.194 100.328C209.674 100.328 210.13 100.256 210.562 100.112C210.994 99.952 211.394 99.696 211.762 99.344C212.13 98.992 212.45 98.52 212.722 97.928L213.202 98.12C213.026 98.648 212.738 99.16 212.338 99.656C211.938 100.152 211.434 100.56 210.826 100.88C210.218 101.184 209.514 101.336 208.714 101.336C207.562 101.336 206.57 101.072 205.738 100.544C204.922 100.016 204.29 99.288 203.842 98.36C203.41 97.416 203.194 96.336 203.194 95.12C203.194 93.712 203.418 92.504 203.866 91.496C204.314 90.472 204.946 89.688 205.762 89.144C206.578 88.584 207.53 88.304 208.618 88.304Z" fill="black"/>
<path d="M280 29.25C280.597 29.25 281.169 29.4871 281.591 29.909C282.013 30.331 282.25 30.9033 282.25 31.5V58.5C282.25 59.0967 282.013 59.669 281.591 60.091C281.169 60.5129 280.597 60.75 280 60.75H266.5C265.903 60.75 265.331 60.5129 264.909 60.091C264.487 59.669 264.25 59.0967 264.25 58.5V31.5C264.25 30.9033 264.487 30.331 264.909 29.909C265.331 29.4871 265.903 29.25 266.5 29.25H280ZM266.5 27C265.307 27 264.162 27.4741 263.318 28.318C262.474 29.1619 262 30.3065 262 31.5V58.5C262 59.6935 262.474 60.8381 263.318 61.682C264.162 62.5259 265.307 63 266.5 63H280C281.193 63 282.338 62.5259 283.182 61.682C284.026 60.8381 284.5 59.6935 284.5 58.5V31.5C284.5 30.3065 284.026 29.1619 283.182 28.318C282.338 27.4741 281.193 27 280 27H266.5Z" fill="#D0398B"/>
<path d="M273.25 58.5C273.847 58.5 274.419 58.2629 274.841 57.841C275.263 57.419 275.5 56.8467 275.5 56.25C275.5 55.6533 275.263 55.081 274.841 54.659C274.419 54.2371 273.847 54 273.25 54C272.653 54 272.081 54.2371 271.659 54.659C271.237 55.081 271 55.6533 271 56.25C271 56.8467 271.237 57.419 271.659 57.841C272.081 58.2629 272.653 58.5 273.25 58.5Z" fill="#D0398B"/>
</svg>
