<svg width="48" height="48" viewBox="0 0 48 48" fill="none" xmlns="http://www.w3.org/2000/svg">
<path d="M48 41.6V44.8C47.1 44.8 46.3417 45.1083 45.725 45.725C45.1083 46.3417 44.8 47.1 44.8 48H41.6C41.6 47.1 41.2917 46.3417 40.675 45.725C40.0583 45.1083 39.3083 44.8 38.425 44.8C37.5417 44.8 36.7833 45.1083 36.15 45.725C35.5167 46.3417 35.2 47.1 35.2 48H32C32 47.1 31.6917 46.3417 31.075 45.725C30.4583 45.1083 29.7 44.8 28.8 44.8C27.9 44.8 27.1417 45.1083 26.525 45.725C25.9083 46.3417 25.6 47.1 25.6 48H22.4C22.4 47.1 22.0917 46.3417 21.475 45.725C20.8583 45.1083 20.1 44.8 19.2 44.8C18.3 44.8 17.5417 45.1083 16.925 45.725C16.3083 46.3417 16 47.1 16 48H12.8C12.8 47.1 12.4833 46.3417 11.85 45.725C11.2167 45.1083 10.4583 44.8 9.575 44.8C8.69167 44.8 7.94167 45.1083 7.325 45.725C6.70833 46.3417 6.4 47.1 6.4 48H3.2C3.2 47.1 2.89167 46.3417 2.275 45.725C1.65833 45.1083 0.9 44.8 0 44.8V41.6C0.866667 41.6 1.61667 41.2833 2.25 40.65C2.88333 40.0167 3.2 39.2583 3.2 38.375C3.2 37.4917 2.89167 36.7417 2.275 36.125C1.65833 35.5083 0.9 35.2 0 35.2V32C0.9 32 1.65833 31.6833 2.275 31.05C2.89167 30.4167 3.2 29.6583 3.2 28.775C3.2 27.8917 2.89167 27.1417 2.275 26.525C1.65833 25.9083 0.9 25.6 0 25.6V22.4C0.866667 22.4 1.61667 22.0833 2.25 21.45C2.88333 20.8167 3.2 20.0583 3.2 19.175C3.2 18.2917 2.89167 17.5417 2.275 16.925C1.65833 16.3083 0.9 16 0 16V12.8C0.866667 12.8 1.61667 12.4833 2.25 11.85C2.88333 11.2167 3.2 10.4583 3.2 9.575C3.2 8.69167 2.88333 7.94167 2.25 7.325C1.61667 6.70833 0.866667 6.4 0 6.4V3.2C0.9 3.2 1.65833 2.88333 2.275 2.25C2.89167 1.61667 3.2 0.866667 3.2 0H6.4C6.4 0.866667 6.70833 1.61667 7.325 2.25C7.94167 2.88333 8.69167 3.2 9.575 3.2C10.4583 3.2 11.2167 2.88333 11.85 2.25C12.4833 1.61667 12.8 0.866667 12.8 0H16C16 0.866667 16.3083 1.61667 16.925 2.25C17.5417 2.88333 18.3 3.2 19.2 3.2C20.1 3.2 20.8583 2.88333 21.475 2.25C22.0917 1.61667 22.4 0.866667 22.4 0H25.6C25.6 0.866667 25.9083 1.61667 26.525 2.25C27.1417 2.88333 27.9 3.2 28.8 3.2C29.7 3.2 30.4583 2.88333 31.075 2.25C31.6917 1.61667 32 0.866667 32 0H35.2C35.2 0.866667 35.5167 1.61667 36.15 2.25C36.7833 2.88333 37.5417 3.2 38.425 3.2C39.3083 3.2 40.0583 2.88333 40.675 2.25C41.2917 1.61667 41.6 0.866667 41.6 0H44.8C44.8 0.866667 45.1083 1.61667 45.725 2.25C46.3417 2.88333 47.1 3.2 48 3.2V6.4C47.1333 6.4 46.3833 6.70833 45.75 7.325C45.1167 7.94167 44.8 8.69167 44.8 9.575C44.8 10.4583 45.1167 11.2167 45.75 11.85C46.3833 12.4833 47.1333 12.8 48 12.8V16C47.1 16 46.3417 16.3083 45.725 16.925C45.1083 17.5417 44.8 18.2917 44.8 19.175C44.8 20.0583 45.1167 20.8167 45.75 21.45C46.3833 22.0833 47.1333 22.4 48 22.4V25.6C47.1 25.6 46.3417 25.9083 45.725 26.525C45.1083 27.1417 44.8 27.8917 44.8 28.775C44.8 29.6583 45.1083 30.4167 45.725 31.05C46.3417 31.6833 47.1 32 48 32V35.2C47.1 35.2 46.3417 35.5083 45.725 36.125C45.1083 36.7417 44.8 37.4917 44.8 38.375C44.8 39.2583 45.1167 40.0167 45.75 40.65C46.3833 41.2833 47.1333 41.6 48 41.6ZM41.6 8C41.6 7.56667 41.4417 7.19167 41.125 6.875C40.8083 6.55833 40.4333 6.4 40 6.4H8C7.56667 6.4 7.19167 6.55833 6.875 6.875C6.55833 7.19167 6.4 7.56667 6.4 8V40C6.4 40.4333 6.55833 40.8083 6.875 41.125C7.19167 41.4417 7.56667 41.6 8 41.6H40C40.4333 41.6 40.8083 41.4417 41.125 41.125C41.4417 40.8083 41.6 40.4333 41.6 40V8ZM37.1 38.4H10.9C10.5333 38.4 10.225 38.275 9.975 38.025C9.725 37.775 9.6 37.4667 9.6 37.1V10.9C9.6 10.5333 9.725 10.225 9.975 9.975C10.225 9.725 10.5333 9.6 10.9 9.6H37.1C37.4667 9.6 37.775 9.725 38.025 9.975C38.275 10.225 38.4 10.5333 38.4 10.9V37.1C38.4 37.4667 38.275 37.775 38.025 38.025C37.775 38.275 37.4667 38.4 37.1 38.4Z" fill="#D0398B"/>
<g filter="url(#filter0_d_340_68)">
<path d="M24.1827 23.1366L16.2518 14.2568L31.8384 14.0185L24.1827 23.1366Z" fill="#FFC5D0"/>
</g>
<g filter="url(#filter1_d_340_68)">
<path d="M24.1357 20.1359L32.2041 38.0146L16.6175 38.2529L24.1357 20.1359Z" fill="#FFC5D0"/>
</g>
<defs>
<filter id="filter0_d_340_68" x="12.252" y="14.0186" width="23.5859" height="17.1182" filterUnits="userSpaceOnUse" color-interpolation-filters="sRGB">
<feFlood flood-opacity="0" result="BackgroundImageFix"/>
<feColorMatrix in="SourceAlpha" type="matrix" values="0 0 0 0 0 0 0 0 0 0 0 0 0 0 0 0 0 0 127 0" result="hardAlpha"/>
<feOffset dy="4"/>
<feGaussianBlur stdDeviation="2"/>
<feComposite in2="hardAlpha" operator="out"/>
<feColorMatrix type="matrix" values="0 0 0 0 0 0 0 0 0 0 0 0 0 0 0 0 0 0 0.25 0"/>
<feBlend mode="normal" in2="BackgroundImageFix" result="effect1_dropShadow_340_68"/>
<feBlend mode="normal" in="SourceGraphic" in2="effect1_dropShadow_340_68" result="shape"/>
</filter>
<filter id="filter1_d_340_68" x="12.6172" y="20.1357" width="23.5879" height="26.1172" filterUnits="userSpaceOnUse" color-interpolation-filters="sRGB">
<feFlood flood-opacity="0" result="BackgroundImageFix"/>
<feColorMatrix in="SourceAlpha" type="matrix" values="0 0 0 0 0 0 0 0 0 0 0 0 0 0 0 0 0 0 127 0" result="hardAlpha"/>
<feOffset dy="4"/>
<feGaussianBlur stdDeviation="2"/>
<feComposite in2="hardAlpha" operator="out"/>
<feColorMatrix type="matrix" values="0 0 0 0 0 0 0 0 0 0 0 0 0 0 0 0 0 0 0.25 0"/>
<feBlend mode="normal" in2="BackgroundImageFix" result="effect1_dropShadow_340_68"/>
<feBlend mode="normal" in="SourceGraphic" in2="effect1_dropShadow_340_68" result="shape"/>
</filter>
</defs>
</svg>
